<svg xmlns="http://www.w3.org/2000/svg" width="760" height="360" viewBox="0 0 760 360">
<rect width="100%" height="100%" fill="white"/>
<text x="54" y="28" font-family="Arial" font-size="16" fill="#111">60 trading days cumulative excess</text>
<line x1="54" y1="110.4" x2="706" y2="110.4" stroke="#999" stroke-width="1"/>
<polyline fill="none" stroke="#1f77b4" stroke-width="2" points="54.0,110.4 65.1,103.1 76.1,107.6 87.2,104.4 98.2,88.7 109.3,83.1 120.3,77.9 131.4,63.7 142.4,54.0 153.5,57.5 164.5,58.9 175.6,77.8 186.6,82.6 197.7,87.6 208.7,91.4 219.8,98.0 230.8,84.1 241.9,86.8 252.9,88.8 264.0,96.5 275.0,94.4 286.1,102.3 297.1,115.2 308.2,118.2 319.2,133.6 330.3,131.9 341.3,134.4 352.4,151.0 363.4,176.3 374.5,175.8 385.5,170.7 396.6,189.3 407.6,194.0 418.7,210.0 429.7,206.6 440.8,206.9 451.8,217.1 462.9,233.9 473.9,250.2 485.0,228.3 496.0,234.4 507.1,263.2 518.1,258.6 529.2,249.6 540.2,267.7 551.3,233.5 562.3,218.9 573.4,232.5 584.4,250.4 595.5,253.8 606.5,241.2 617.6,232.4 628.6,248.7 639.7,243.1 650.7,249.8 661.8,240.1 672.8,259.2 683.9,268.8 694.9,291.4 706.0,306.0"/>
<text x="54" y="346" font-family="Arial" font-size="12" fill="#1f77b4">159567.SZ-588000.SH</text>
<polyline fill="none" stroke="#2ca02c" stroke-width="2" points="54.0,110.4 65.1,108.6 76.1,110.6 87.2,109.5 98.2,104.8 109.3,100.6 120.3,102.1 131.4,99.5 142.4,96.4 153.5,96.1 164.5,114.8 175.6,100.2 186.6,101.4 197.7,101.9 208.7,98.7 219.8,100.5 230.8,97.4 241.9,99.2 252.9,95.1 264.0,96.9 275.0,97.7 286.1,96.6 297.1,102.8 308.2,101.1 319.2,100.4 330.3,102.3 341.3,104.1 352.4,102.8 363.4,105.0 374.5,103.7 385.5,103.4 396.6,104.1 407.6,106.1 418.7,105.6 429.7,104.5 440.8,106.3 451.8,105.7 462.9,107.5 473.9,108.6 485.0,105.7 496.0,106.4 507.1,107.7 518.1,110.6 529.2,108.7 540.2,110.4 551.3,107.9 562.3,111.1 573.4,114.8 584.4,114.5 595.5,113.6 606.5,115.3 617.6,115.4 628.6,113.4 639.7,113.9 650.7,114.5 661.8,112.2 672.8,111.5 683.9,111.4 694.9,111.8 706.0,111.4"/>
<text x="204" y="346" font-family="Arial" font-size="12" fill="#2ca02c">159567.SZ-159557.SZ</text>
</svg>
