<svg xmlns="http://www.w3.org/2000/svg" width="760" height="360" viewBox="0 0 760 360">
<rect width="100%" height="100%" fill="white"/>
<text x="54" y="28" font-family="Arial" font-size="16" fill="#111">60 trading days cumulative returns</text>
<line x1="54" y1="252.1" x2="706" y2="252.1" stroke="#999" stroke-width="1"/>
<polyline fill="none" stroke="#1f77b4" stroke-width="2" points="54.0,252.1 65.1,234.2 76.1,232.5 87.2,236.4 98.2,212.8 109.3,208.9 120.3,212.3 131.4,181.4 142.4,180.3 153.5,186.5 164.5,183.1 175.6,183.1 186.6,192.1 197.7,192.1 208.7,193.8 219.8,193.2 230.8,174.7 241.9,173.6 252.9,175.8 264.0,177.5 275.0,181.4 286.1,184.2 297.1,206.7 308.2,203.9 319.2,206.1 330.3,210.6 341.3,211.7 352.4,210.0 363.4,216.2 374.5,208.4 385.5,214.0 396.6,213.4 407.6,217.9 418.7,224.1 429.7,234.2 440.8,242.6 451.8,251.0 462.9,252.7 473.9,256.1 485.0,248.8 496.0,248.8 507.1,253.2 518.1,256.1 529.2,261.1 540.2,275.1 551.3,260.0 562.3,267.3 573.4,276.8 584.4,287.5 595.5,289.2 606.5,293.1 617.6,304.9 628.6,304.9 639.7,300.9 650.7,306.0 661.8,293.7 672.8,292.5 683.9,301.5 694.9,306.0 706.0,302.1"/>
<text x="54" y="346" font-family="Arial" font-size="12" fill="#1f77b4">159567.SZ</text>
<polyline fill="none" stroke="#2ca02c" stroke-width="2" points="54.0,252.1 65.1,243.5 76.1,236.0 87.2,244.1 98.2,240.3 109.3,243.5 120.3,253.6 131.4,240.6 142.4,251.8 153.5,253.6 164.5,248.4 175.6,224.5 186.6,227.4 197.7,221.0 208.7,217.9 219.8,208.9 230.8,208.1 241.9,203.5 252.9,203.2 264.0,195.1 275.0,201.7 286.1,194.5 297.1,200.6 308.2,194.0 319.2,176.7 330.3,183.3 341.3,181.3 352.4,158.5 363.4,132.6 374.5,125.4 385.5,137.5 396.6,113.3 407.6,111.9 418.7,97.8 429.7,112.2 440.8,120.2 451.8,115.6 462.9,96.0 473.9,78.8 485.0,99.2 496.0,91.4 507.1,59.5 518.1,68.1 529.2,84.5 540.2,75.6 551.3,103.8 562.3,129.7 573.4,122.0 584.4,109.9 595.5,107.3 606.5,127.1 617.6,150.2 628.6,129.4 639.7,132.6 650.7,129.2 661.8,129.2 672.8,103.8 683.9,100.7 694.9,76.5 706.0,54.0"/>
<text x="204" y="346" font-family="Arial" font-size="12" fill="#2ca02c">588000.SH</text>
<polyline fill="none" stroke="#d62728" stroke-width="2" points="54.0,252.1 65.1,236.5 76.1,232.2 87.2,237.6 98.2,220.0 109.3,221.4 120.3,222.8 131.4,195.2 142.4,198.1 153.5,204.6 164.5,177.6 175.6,196.1 186.6,203.5 197.7,202.9 208.7,208.6 219.8,205.7 230.8,191.2 241.9,187.8 252.9,195.2 264.0,194.6 275.0,197.5 286.1,201.8 297.1,216.3 308.2,215.7 319.2,218.8 330.3,220.8 341.3,219.7 352.4,219.7 363.4,223.1 374.5,216.8 385.5,222.8 396.6,221.4 407.6,223.4 418.7,230.2 429.7,241.6 440.8,247.9 451.8,257.0 462.9,256.4 473.9,258.4 485.0,254.7 496.0,253.8 507.1,256.7 518.1,255.8 529.2,263.2 540.2,275.2 551.3,263.2 562.3,266.4 573.4,271.2 584.4,282.3 595.5,285.1 606.5,286.8 617.6,298.5 628.6,301.1 639.7,296.5 650.7,300.8 661.8,291.4 672.8,291.1 683.9,300.2 694.9,304.2 706.0,300.8"/>
<text x="354" y="346" font-family="Arial" font-size="12" fill="#d62728">159557.SZ</text>
</svg>
