<svg xmlns="http://www.w3.org/2000/svg" width="760" height="360" viewBox="0 0 760 360">
<rect width="100%" height="100%" fill="white"/>
<text x="54" y="28" font-family="Arial" font-size="16" fill="#111">60 trading days cumulative excess</text>
<line x1="54" y1="61.9" x2="706" y2="61.9" stroke="#999" stroke-width="1"/>
<polyline fill="none" stroke="#1f77b4" stroke-width="2" points="54.0,61.9 65.1,54.0 76.1,56.4 87.2,57.8 98.2,73.2 109.3,76.4 120.3,80.5 131.4,83.5 142.4,89.0 153.5,79.1 164.5,81.5 175.6,82.9 186.6,89.1 197.7,87.0 208.7,93.2 219.8,101.9 230.8,104.6 241.9,117.1 252.9,115.3 264.0,117.2 275.0,131.0 286.1,151.2 297.1,151.4 308.2,146.8 319.2,162.1 330.3,165.5 341.3,178.1 352.4,174.5 363.4,174.0 374.5,181.7 385.5,195.3 396.6,208.4 407.6,191.1 418.7,196.1 429.7,219.3 440.8,215.2 451.8,207.5 462.9,221.1 473.9,194.4 485.0,181.7 496.0,192.1 507.1,205.9 518.1,208.5 529.2,197.9 540.2,189.6 551.3,203.0 562.3,198.8 573.4,203.9 584.4,196.9 595.5,212.7 606.5,219.8 617.6,237.9 628.6,250.2 639.7,258.7 650.7,254.8 661.8,263.3 672.8,281.7 683.9,275.6 694.9,282.5 706.0,306.0"/>
<text x="54" y="346" font-family="Arial" font-size="12" fill="#1f77b4">159567.SZ-588000.SH</text>
<polyline fill="none" stroke="#2ca02c" stroke-width="2" points="54.0,61.9 65.1,59.6 76.1,59.3 87.2,73.1 98.2,62.3 109.3,63.1 120.3,63.4 131.4,61.1 142.4,62.4 153.5,60.4 164.5,61.8 175.6,58.7 186.6,60.0 197.7,60.6 208.7,59.7 219.8,63.9 230.8,62.6 241.9,62.1 252.9,63.4 264.0,64.7 275.0,63.8 286.1,65.3 297.1,64.5 308.2,64.2 319.2,64.7 330.3,66.1 341.3,65.6 352.4,64.6 363.4,65.7 374.5,65.2 385.5,66.5 396.6,67.2 407.6,65.3 418.7,65.8 429.7,66.6 440.8,68.7 451.8,67.2 462.9,68.2 473.9,66.6 485.0,68.9 496.0,71.5 507.1,71.0 518.1,70.3 529.2,71.5 540.2,71.4 551.3,69.9 562.3,70.3 573.4,70.7 584.4,69.2 595.5,68.7 606.5,68.5 617.6,68.7 628.6,68.5 639.7,69.9 650.7,70.5 661.8,71.0 672.8,72.7 683.9,72.8 694.9,71.6 706.0,71.5"/>
<text x="204" y="346" font-family="Arial" font-size="12" fill="#2ca02c">159567.SZ-159557.SZ</text>
</svg>
