<svg xmlns="http://www.w3.org/2000/svg" width="760" height="360" viewBox="0 0 760 360">
<rect width="100%" height="100%" fill="white"/>
<text x="54" y="28" font-family="Arial" font-size="16" fill="#111">60 trading days cumulative returns</text>
<line x1="54" y1="240.7" x2="706" y2="240.7" stroke="#999" stroke-width="1"/>
<polyline fill="none" stroke="#1f77b4" stroke-width="2" points="54.0,240.7 65.1,239.2 76.1,242.8 87.2,221.4 98.2,217.8 109.3,220.8 120.3,192.8 131.4,191.8 142.4,197.4 153.5,194.3 164.5,194.3 175.6,202.5 186.6,202.5 197.7,204.0 208.7,203.5 219.8,186.7 230.8,185.7 241.9,187.7 252.9,189.2 264.0,192.8 275.0,195.3 286.1,215.7 297.1,213.2 308.2,215.2 319.2,219.3 330.3,220.3 341.3,218.8 352.4,224.4 363.4,217.3 374.5,222.4 385.5,221.9 396.6,225.9 407.6,231.6 418.7,240.7 429.7,248.4 440.8,256.0 451.8,257.6 462.9,260.6 473.9,254.0 485.0,254.0 496.0,258.1 507.1,260.6 518.1,265.2 529.2,278.0 540.2,264.2 551.3,270.8 562.3,279.5 573.4,289.2 584.4,290.7 595.5,294.3 606.5,305.0 617.6,305.0 628.6,301.4 639.7,306.0 650.7,294.8 661.8,293.8 672.8,301.9 683.9,306.0 694.9,302.4 706.0,304.5"/>
<text x="54" y="346" font-family="Arial" font-size="12" fill="#1f77b4">159567.SZ</text>
<polyline fill="none" stroke="#2ca02c" stroke-width="2" points="54.0,240.7 65.1,233.8 76.1,241.3 87.2,237.8 98.2,240.7 109.3,250.1 120.3,238.1 131.4,248.5 142.4,250.1 153.5,245.3 164.5,223.0 175.6,225.7 186.6,219.8 197.7,216.9 208.7,208.6 219.8,207.8 230.8,203.5 241.9,203.2 252.9,195.7 264.0,201.9 275.0,195.2 286.1,200.8 297.1,194.7 308.2,178.6 319.2,184.7 330.3,182.9 341.3,161.7 352.4,137.6 363.4,130.9 374.5,142.1 385.5,119.6 396.6,118.3 407.6,105.2 418.7,118.6 429.7,126.1 440.8,121.8 451.8,103.6 462.9,87.5 473.9,106.5 485.0,99.3 496.0,69.5 507.1,77.6 518.1,92.8 529.2,84.5 540.2,110.8 551.3,134.9 562.3,127.7 573.4,116.4 584.4,114.0 595.5,132.5 606.5,153.9 617.6,134.6 628.6,137.6 639.7,134.4 650.7,134.4 661.8,110.8 672.8,107.8 683.9,85.3 694.9,64.4 706.0,54.0"/>
<text x="204" y="346" font-family="Arial" font-size="12" fill="#2ca02c">588000.SH</text>
<polyline fill="none" stroke="#d62728" stroke-width="2" points="54.0,240.7 65.1,236.8 76.1,241.8 87.2,225.6 98.2,226.9 109.3,228.2 120.3,203.0 131.4,205.6 142.4,211.6 153.5,186.9 164.5,203.8 175.6,210.6 186.6,210.0 197.7,215.2 208.7,212.6 219.8,199.4 230.8,196.3 241.9,203.0 252.9,202.5 264.0,205.1 275.0,209.0 286.1,222.3 297.1,221.7 308.2,224.6 319.2,226.4 330.3,225.4 341.3,225.4 352.4,228.5 363.4,222.8 374.5,228.2 385.5,226.9 396.6,228.8 407.6,235.0 418.7,245.4 429.7,251.1 440.8,259.5 451.8,258.9 462.9,260.8 473.9,257.4 485.0,256.6 496.0,259.2 507.1,258.4 518.1,265.2 529.2,276.1 540.2,265.2 551.3,268.0 562.3,272.5 573.4,282.6 584.4,285.2 595.5,286.8 606.5,297.4 617.6,299.8 628.6,295.6 639.7,299.5 650.7,290.9 661.8,290.7 672.8,299.0 683.9,302.6 694.9,299.5 706.0,299.2"/>
<text x="354" y="346" font-family="Arial" font-size="12" fill="#d62728">159557.SZ</text>
</svg>
