<svg xmlns="http://www.w3.org/2000/svg" width="760" height="360" viewBox="0 0 760 360">
<rect width="100%" height="100%" fill="white"/>
<text x="54" y="28" font-family="Arial" font-size="16" fill="#111">60 trading days cumulative excess</text>
<line x1="54" y1="105.3" x2="706" y2="105.3" stroke="#999" stroke-width="1"/>
<polyline fill="none" stroke="#1f77b4" stroke-width="2" points="54.0,105.3 65.1,102.1 76.1,87.2 87.2,81.9 98.2,76.8 109.3,63.4 120.3,54.0 131.4,57.3 142.4,58.7 153.5,76.9 164.5,81.4 175.6,86.3 186.6,89.9 197.7,96.3 208.7,83.0 219.8,85.7 230.8,87.6 241.9,94.9 252.9,92.9 264.0,100.5 275.0,112.8 286.1,115.7 297.1,130.5 308.2,128.8 319.2,131.2 330.3,147.2 341.3,171.5 352.4,171.1 363.4,166.1 374.5,184.0 385.5,188.5 396.6,203.9 407.6,200.5 418.7,200.8 429.7,210.6 440.8,226.7 451.8,242.4 462.9,221.4 473.9,227.3 485.0,254.9 496.0,250.5 507.1,241.8 518.1,259.1 529.2,226.3 540.2,212.1 551.3,225.2 562.3,242.4 573.4,245.6 584.4,233.5 595.5,224.9 606.5,240.6 617.6,235.3 628.6,241.7 639.7,232.4 650.7,250.8 661.8,260.0 672.8,281.7 683.9,295.8 694.9,306.0 706.0,301.7"/>
<text x="54" y="346" font-family="Arial" font-size="12" fill="#1f77b4">159567.SZ-588000.SH</text>
<polyline fill="none" stroke="#2ca02c" stroke-width="2" points="54.0,105.3 65.1,104.2 76.1,99.7 87.2,95.7 98.2,97.1 109.3,94.7 120.3,91.7 131.4,91.4 142.4,109.2 153.5,95.3 164.5,96.5 175.6,96.9 186.6,93.9 197.7,95.6 208.7,92.6 219.8,94.3 230.8,90.5 241.9,92.2 252.9,93.0 264.0,91.9 275.0,97.8 286.1,96.2 297.1,95.5 308.2,97.4 319.2,99.1 330.3,97.8 341.3,99.9 352.4,98.7 363.4,98.4 374.5,99.1 385.5,100.9 396.6,100.5 407.6,99.5 418.7,101.1 429.7,100.6 440.8,102.3 451.8,103.3 462.9,100.6 473.9,101.3 485.0,102.5 496.0,105.3 507.1,103.5 518.1,105.1 529.2,102.7 540.2,105.8 551.3,109.3 562.3,109.0 573.4,108.1 584.4,109.8 595.5,109.9 606.5,108.0 617.6,108.4 628.6,109.0 639.7,106.8 650.7,106.2 661.8,106.1 672.8,106.5 683.9,106.1 694.9,108.0 706.0,108.8"/>
<text x="204" y="346" font-family="Arial" font-size="12" fill="#2ca02c">159567.SZ-159557.SZ</text>
</svg>
