<svg xmlns="http://www.w3.org/2000/svg" width="760" height="360" viewBox="0 0 760 360">
<rect width="100%" height="100%" fill="white"/>
<text x="54" y="28" font-family="Arial" font-size="16" fill="#111">60 trading days cumulative returns</text>
<line x1="54" y1="233.8" x2="706" y2="233.8" stroke="#999" stroke-width="1"/>
<polyline fill="none" stroke="#1f77b4" stroke-width="2" points="54.0,233.8 65.1,233.8 76.1,234.8 87.2,234.5 98.2,223.0 109.3,222.3 120.3,223.7 131.4,224.8 142.4,227.2 153.5,228.9 164.5,242.8 175.6,241.1 186.6,242.5 197.7,245.3 208.7,246.0 219.8,244.9 230.8,248.7 241.9,243.9 252.9,247.3 264.0,247.0 275.0,249.8 286.1,253.6 297.1,259.8 308.2,265.0 319.2,270.2 330.3,271.3 341.3,273.4 352.4,268.9 363.4,268.9 374.5,271.6 385.5,273.4 396.6,276.5 407.6,285.2 418.7,275.8 429.7,280.3 440.8,286.2 451.8,292.8 462.9,293.9 473.9,296.3 485.0,303.6 496.0,303.6 507.1,301.1 518.1,304.3 529.2,296.6 540.2,295.9 551.3,301.5 562.3,304.3 573.4,301.8 584.4,303.2 595.5,305.7 606.5,300.1 617.6,303.6 628.6,306.0 639.7,290.0 650.7,296.3 661.8,285.5 672.8,283.8 683.9,270.9 694.9,265.4 706.0,274.8"/>
<text x="54" y="346" font-family="Arial" font-size="12" fill="#1f77b4">159567.SZ</text>
<polyline fill="none" stroke="#2ca02c" stroke-width="2" points="54.0,233.8 65.1,229.5 76.1,227.4 87.2,221.4 98.2,220.8 109.3,217.7 120.3,217.5 131.4,212.1 142.4,216.6 153.5,211.7 164.5,215.8 175.6,211.4 186.6,199.7 197.7,204.2 208.7,202.8 219.8,187.5 230.8,170.1 241.9,165.3 252.9,173.4 264.0,157.2 275.0,156.2 286.1,146.7 297.1,156.4 308.2,161.8 319.2,158.7 330.3,145.5 341.3,133.9 352.4,147.7 363.4,142.4 374.5,121.0 385.5,126.8 396.6,137.8 407.6,131.8 418.7,150.8 429.7,168.2 440.8,163.0 451.8,154.8 462.9,153.1 473.9,166.4 485.0,181.9 496.0,168.0 507.1,170.1 518.1,167.8 529.2,167.8 540.2,150.8 551.3,148.6 562.3,132.4 573.4,117.3 584.4,109.7 595.5,116.1 606.5,102.0 617.6,86.1 628.6,94.8 639.7,72.6 650.7,54.0 661.8,64.5 672.8,97.5 683.9,100.8 694.9,98.1 706.0,96.2"/>
<text x="204" y="346" font-family="Arial" font-size="12" fill="#2ca02c">588000.SH</text>
<polyline fill="none" stroke="#d62728" stroke-width="2" points="54.0,233.8 65.1,233.4 76.1,237.1 87.2,235.2 98.2,226.0 109.3,223.9 120.3,228.6 131.4,228.2 142.4,230.0 153.5,232.7 164.5,241.9 175.6,241.6 186.6,243.6 197.7,244.8 208.7,244.1 219.8,244.1 230.8,246.3 241.9,242.3 252.9,246.1 264.0,245.2 275.0,246.4 286.1,250.8 297.1,258.0 308.2,262.0 319.2,267.8 330.3,267.4 341.3,268.7 352.4,266.3 363.4,265.8 374.5,267.6 385.5,267.0 396.6,271.7 407.6,279.3 418.7,271.7 429.7,273.7 440.8,276.8 451.8,283.8 462.9,285.6 473.9,286.7 485.0,294.1 496.0,295.8 507.1,292.9 518.1,295.6 529.2,289.6 540.2,289.4 551.3,295.2 562.3,297.8 573.4,295.6 584.4,295.4 595.5,297.2 606.5,291.1 617.6,292.7 628.6,295.0 639.7,280.4 650.7,286.7 661.8,283.7 672.8,276.8 683.9,266.3 694.9,260.2 706.0,267.9"/>
<text x="354" y="346" font-family="Arial" font-size="12" fill="#d62728">159557.SZ</text>
</svg>
