<svg xmlns="http://www.w3.org/2000/svg" width="760" height="360" viewBox="0 0 760 360">
<rect width="100%" height="100%" fill="white"/>
<text x="54" y="28" font-family="Arial" font-size="16" fill="#111">60 trading days cumulative excess</text>
<line x1="54" y1="59.8" x2="706" y2="59.8" stroke="#999" stroke-width="1"/>
<polyline fill="none" stroke="#1f77b4" stroke-width="2" points="54.0,59.8 65.1,65.6 76.1,54.0 87.2,56.5 98.2,58.2 109.3,64.9 120.3,62.9 131.4,69.8 142.4,80.4 153.5,83.2 164.5,96.7 175.6,95.1 186.6,97.2 197.7,112.0 208.7,134.3 219.8,134.1 230.8,129.3 241.9,145.9 252.9,149.9 264.0,163.8 275.0,160.4 286.1,160.4 297.1,169.2 308.2,184.0 319.2,198.3 330.3,179.2 341.3,184.6 352.4,209.9 363.4,205.7 374.5,197.6 385.5,213.1 396.6,183.4 407.6,170.0 418.7,181.8 429.7,197.3 440.8,200.2 451.8,188.9 462.9,180.6 473.9,195.1 485.0,190.3 496.0,196.1 507.1,187.9 518.1,204.9 529.2,213.0 540.2,232.9 551.3,246.1 562.3,255.4 573.4,251.3 584.4,260.1 595.5,280.3 606.5,273.9 617.6,280.0 628.6,306.0 639.7,283.6 650.7,247.3 661.8,230.1 672.8,227.0 683.9,239.1 694.9,244.4 706.0,282.0"/>
<text x="54" y="346" font-family="Arial" font-size="12" fill="#1f77b4">159567.SZ-588000.SH</text>
<polyline fill="none" stroke="#2ca02c" stroke-width="2" points="54.0,59.8 65.1,61.3 76.1,59.0 87.2,60.6 98.2,57.0 109.3,58.5 120.3,59.2 131.4,58.1 142.4,63.0 153.5,61.6 164.5,60.9 175.6,62.5 186.6,64.1 197.7,62.9 208.7,64.7 219.8,63.8 230.8,63.4 241.9,64.0 252.9,65.6 264.0,65.0 275.0,63.9 286.1,65.2 297.1,64.5 308.2,66.0 319.2,66.9 330.3,64.6 341.3,65.2 352.4,66.2 363.4,68.6 374.5,66.9 385.5,68.0 396.6,66.2 407.6,68.9 418.7,71.9 429.7,71.3 440.8,70.5 451.8,71.9 462.9,71.7 473.9,70.0 485.0,70.5 496.0,70.9 507.1,69.2 518.1,68.6 529.2,68.3 540.2,68.6 551.3,68.3 562.3,70.0 573.4,70.6 584.4,71.3 595.5,73.3 606.5,73.3 617.6,72.0 628.6,71.9 639.7,63.7 650.7,69.3 661.8,66.8 672.8,67.5 683.9,69.2 694.9,68.3 706.0,70.2"/>
<text x="204" y="346" font-family="Arial" font-size="12" fill="#2ca02c">159567.SZ-159557.SZ</text>
</svg>
