<svg xmlns="http://www.w3.org/2000/svg" width="760" height="360" viewBox="0 0 760 360">
<rect width="100%" height="100%" fill="white"/>
<text x="54" y="28" font-family="Arial" font-size="16" fill="#111">60 trading days cumulative returns</text>
<line x1="54" y1="243.3" x2="706" y2="243.3" stroke="#999" stroke-width="1"/>
<polyline fill="none" stroke="#1f77b4" stroke-width="2" points="54.0,243.3 65.1,222.8 76.1,219.3 87.2,222.3 98.2,195.3 109.3,194.4 120.3,199.7 131.4,196.8 142.4,196.8 153.5,204.6 164.5,204.6 175.6,206.1 186.6,205.6 197.7,189.5 208.7,188.5 219.8,190.4 230.8,191.9 241.9,195.3 252.9,197.8 264.0,217.4 275.0,214.9 286.1,216.9 297.1,220.8 308.2,221.8 319.2,220.3 330.3,225.7 341.3,218.8 352.4,223.7 363.4,223.2 374.5,227.2 385.5,232.6 396.6,241.4 407.6,248.7 418.7,256.1 429.7,257.5 440.8,260.5 451.8,254.1 462.9,254.1 473.9,258.0 485.0,260.5 496.0,264.9 507.1,277.1 518.1,263.9 529.2,270.3 540.2,278.6 551.3,287.9 562.3,289.4 573.4,292.8 584.4,303.1 595.5,303.1 606.5,299.6 617.6,304.0 628.6,293.3 639.7,292.3 650.7,300.1 661.8,304.0 672.8,300.6 683.9,302.6 694.9,306.0 706.0,298.2"/>
<text x="54" y="346" font-family="Arial" font-size="12" fill="#1f77b4">159567.SZ</text>
<polyline fill="none" stroke="#2ca02c" stroke-width="2" points="54.0,243.3 65.1,240.0 76.1,242.8 87.2,251.8 98.2,240.3 109.3,250.2 120.3,251.8 131.4,247.2 142.4,225.9 153.5,228.5 164.5,222.8 175.6,220.0 186.6,212.1 197.7,211.3 208.7,207.2 219.8,206.9 230.8,199.8 241.9,205.7 252.9,199.3 264.0,204.6 275.0,198.7 286.1,183.4 297.1,189.3 308.2,187.5 319.2,167.2 330.3,144.2 341.3,137.8 352.4,148.5 363.4,127.0 374.5,125.7 385.5,113.2 396.6,126.0 407.6,133.2 418.7,129.1 429.7,111.6 440.8,96.3 451.8,114.5 462.9,107.5 473.9,79.1 485.0,86.8 496.0,101.4 507.1,93.5 518.1,118.6 529.2,141.6 540.2,134.7 551.3,123.9 562.3,121.6 573.4,139.3 584.4,159.8 595.5,141.4 606.5,144.2 617.6,141.1 628.6,141.1 639.7,118.6 650.7,115.7 661.8,94.2 672.8,74.2 683.9,64.2 694.9,72.7 706.0,54.0"/>
<text x="204" y="346" font-family="Arial" font-size="12" fill="#2ca02c">588000.SH</text>
<polyline fill="none" stroke="#d62728" stroke-width="2" points="54.0,243.3 65.1,227.9 76.1,229.1 87.2,230.4 98.2,206.2 109.3,208.7 120.3,214.4 131.4,190.8 142.4,207.0 153.5,213.4 164.5,212.9 175.6,217.9 186.6,215.4 197.7,202.7 208.7,199.7 219.8,206.2 230.8,205.7 241.9,208.2 252.9,211.9 264.0,224.6 275.0,224.1 286.1,226.9 297.1,228.6 308.2,227.6 319.2,227.6 330.3,230.6 341.3,225.1 352.4,230.4 363.4,229.1 374.5,230.9 385.5,236.9 396.6,246.8 407.6,252.3 418.7,260.3 429.7,259.8 440.8,261.5 451.8,258.3 462.9,257.5 473.9,260.0 485.0,259.3 496.0,265.7 507.1,276.2 518.1,265.7 529.2,268.5 540.2,272.7 551.3,282.4 562.3,284.9 573.4,286.4 584.4,296.6 595.5,298.9 606.5,294.9 617.6,298.6 628.6,290.4 639.7,290.1 650.7,298.1 661.8,301.6 672.8,298.6 683.9,298.4 694.9,300.9 706.0,292.4"/>
<text x="354" y="346" font-family="Arial" font-size="12" fill="#d62728">159557.SZ</text>
</svg>
