<svg xmlns="http://www.w3.org/2000/svg" width="760" height="360" viewBox="0 0 760 360">
<rect width="100%" height="100%" fill="white"/>
<text x="54" y="28" font-family="Arial" font-size="16" fill="#111">60 trading days cumulative excess</text>
<line x1="54" y1="67.2" x2="706" y2="67.2" stroke="#999" stroke-width="1"/>
<polyline fill="none" stroke="#1f77b4" stroke-width="2" points="54.0,67.2 65.1,82.1 76.1,85.1 87.2,89.1 98.2,91.9 109.3,97.2 120.3,87.9 131.4,90.1 142.4,91.5 153.5,97.5 164.5,95.4 175.6,101.4 186.6,109.6 197.7,112.3 208.7,124.2 219.8,122.5 230.8,124.4 241.9,137.7 252.9,157.1 264.0,157.4 275.0,152.9 286.1,167.7 297.1,171.0 308.2,183.1 319.2,179.5 330.3,178.9 341.3,186.3 352.4,199.4 363.4,212.0 374.5,195.3 385.5,200.2 396.6,222.5 407.6,218.7 418.7,211.1 429.7,224.2 440.8,198.5 451.8,186.2 462.9,196.1 473.9,209.4 485.0,211.9 496.0,201.6 507.1,193.5 518.1,206.4 529.2,202.4 540.2,207.2 551.3,200.6 562.3,215.8 573.4,222.6 584.4,240.1 595.5,252.0 606.5,260.2 617.6,256.4 628.6,264.7 639.7,282.5 650.7,276.5 661.8,283.4 672.8,306.0 683.9,287.0 694.9,254.8 706.0,240.6"/>
<text x="54" y="346" font-family="Arial" font-size="12" fill="#1f77b4">159567.SZ-588000.SH</text>
<polyline fill="none" stroke="#2ca02c" stroke-width="2" points="54.0,67.2 65.1,57.4 76.1,58.3 87.2,58.6 98.2,56.5 109.3,57.7 120.3,55.5 131.4,56.7 142.4,54.0 153.5,55.2 164.5,55.8 175.6,55.0 186.6,59.4 197.7,58.2 208.7,57.7 219.8,59.1 230.8,60.3 241.9,59.4 252.9,60.9 264.0,60.0 275.0,59.8 286.1,60.3 297.1,61.6 308.2,61.3 319.2,60.7 330.3,61.9 341.3,61.6 352.4,62.8 363.4,63.5 374.5,61.6 385.5,62.0 396.6,62.9 407.6,64.9 418.7,63.7 429.7,64.9 440.8,63.1 451.8,65.3 462.9,67.9 473.9,67.7 485.0,67.1 496.0,68.3 507.1,68.4 518.1,67.1 529.2,67.4 540.2,67.8 551.3,66.2 562.3,65.7 573.4,65.7 584.4,66.0 595.5,65.7 606.5,67.1 617.6,67.7 628.6,68.0 639.7,69.6 650.7,69.8 661.8,68.2 672.8,68.3 683.9,61.6 694.9,65.8 706.0,63.4"/>
<text x="204" y="346" font-family="Arial" font-size="12" fill="#2ca02c">159567.SZ-159557.SZ</text>
</svg>
