<svg xmlns="http://www.w3.org/2000/svg" width="760" height="360" viewBox="0 0 760 360">
<rect width="100%" height="100%" fill="white"/>
<text x="54" y="28" font-family="Arial" font-size="16" fill="#111">60 trading days cumulative returns</text>
<line x1="54" y1="240.1" x2="706" y2="240.1" stroke="#999" stroke-width="1"/>
<polyline fill="none" stroke="#1f77b4" stroke-width="2" points="54.0,240.1 65.1,238.3 76.1,238.3 87.2,243.1 98.2,243.1 109.3,244.0 120.3,243.7 131.4,233.7 142.4,233.1 153.5,234.3 164.5,235.3 175.6,237.4 186.6,238.9 197.7,251.0 208.7,249.5 219.8,250.7 230.8,253.1 241.9,253.7 252.9,252.8 264.0,256.1 275.0,251.9 286.1,254.9 297.1,254.6 308.2,257.0 319.2,260.3 330.3,265.8 341.3,270.3 352.4,274.9 363.4,275.8 374.5,277.6 385.5,273.7 396.6,273.7 407.6,276.1 418.7,277.6 429.7,280.3 440.8,287.9 451.8,279.7 462.9,283.6 473.9,288.8 485.0,294.5 496.0,295.4 507.1,297.5 518.1,303.9 529.2,303.9 540.2,301.8 551.3,304.5 562.3,297.8 573.4,297.2 584.4,302.1 595.5,304.5 606.5,302.4 617.6,303.6 628.6,305.7 639.7,300.9 650.7,303.9 661.8,306.0 672.8,292.1 683.9,297.5 694.9,288.2 706.0,286.7"/>
<text x="54" y="346" font-family="Arial" font-size="12" fill="#1f77b4">159567.SZ</text>
<polyline fill="none" stroke="#2ca02c" stroke-width="2" points="54.0,240.1 65.1,236.8 76.1,221.7 87.2,223.5 98.2,219.5 109.3,217.5 120.3,211.8 131.4,211.3 142.4,208.3 153.5,208.2 164.5,203.1 175.6,207.3 186.6,202.7 197.7,206.5 208.7,202.3 219.8,191.4 230.8,195.6 241.9,194.3 252.9,179.9 264.0,163.5 275.0,158.9 286.1,166.6 297.1,151.2 308.2,150.3 319.2,141.4 330.3,150.5 341.3,155.6 352.4,152.7 363.4,140.3 374.5,129.3 385.5,142.3 396.6,137.4 407.6,117.1 418.7,122.6 429.7,133.0 440.8,127.3 451.8,145.2 462.9,161.6 473.9,156.7 485.0,149.1 496.0,147.4 507.1,160.0 518.1,174.6 529.2,161.5 540.2,163.5 551.3,161.3 562.3,161.3 573.4,145.2 584.4,143.2 595.5,127.9 606.5,113.7 617.6,106.5 628.6,112.6 639.7,99.2 650.7,84.3 661.8,92.5 672.8,71.5 683.9,54.0 694.9,63.9 706.0,95.1"/>
<text x="204" y="346" font-family="Arial" font-size="12" fill="#2ca02c">588000.SH</text>
<polyline fill="none" stroke="#d62728" stroke-width="2" points="54.0,240.1 65.1,224.9 76.1,235.3 87.2,239.5 98.2,239.1 109.3,242.3 120.3,240.7 131.4,232.6 142.4,230.7 153.5,234.8 164.5,234.5 175.6,236.1 186.6,238.5 197.7,246.6 208.7,246.3 219.8,248.1 230.8,249.2 241.9,248.6 252.9,248.6 264.0,250.5 275.0,247.0 286.1,250.3 297.1,249.5 308.2,250.6 319.2,254.5 330.3,260.9 341.3,264.4 352.4,269.5 363.4,269.2 374.5,270.3 385.5,268.2 396.6,267.7 407.6,269.3 418.7,268.9 429.7,273.0 440.8,279.7 451.8,273.0 462.9,274.8 473.9,277.5 485.0,283.7 496.0,285.3 507.1,286.3 518.1,292.8 529.2,294.3 540.2,291.7 551.3,294.1 562.3,288.8 573.4,288.7 584.4,293.8 595.5,296.0 606.5,294.1 617.6,293.9 628.6,295.5 639.7,290.1 650.7,291.5 661.8,293.6 672.8,280.7 683.9,286.3 694.9,283.5 706.0,277.5"/>
<text x="354" y="346" font-family="Arial" font-size="12" fill="#d62728">159557.SZ</text>
</svg>
