<svg xmlns="http://www.w3.org/2000/svg" width="760" height="360" viewBox="0 0 760 360">
<rect width="100%" height="100%" fill="white"/>
<text x="54" y="28" font-family="Arial" font-size="16" fill="#111">60 trading days cumulative excess</text>
<line x1="54" y1="100.5" x2="706" y2="100.5" stroke="#999" stroke-width="1"/>
<polyline fill="none" stroke="#1f77b4" stroke-width="2" points="54.0,100.5 65.1,105.0 76.1,101.8 87.2,87.1 98.2,81.7 109.3,76.5 120.3,63.4 131.4,54.0 142.4,57.3 153.5,58.7 164.5,77.0 175.6,81.5 186.6,86.3 197.7,90.0 208.7,96.4 219.8,83.2 230.8,85.9 241.9,87.8 252.9,95.2 264.0,93.1 275.0,100.7 286.1,112.8 297.1,115.7 308.2,130.6 319.2,128.9 330.3,131.3 341.3,147.4 352.4,171.8 363.4,171.4 374.5,166.3 385.5,184.4 396.6,188.8 407.6,204.2 418.7,200.7 429.7,200.9 440.8,210.7 451.8,226.9 462.9,242.6 473.9,221.5 485.0,227.4 496.0,255.2 507.1,250.7 518.1,241.9 529.2,259.2 540.2,226.4 551.3,212.0 562.3,225.1 573.4,242.2 584.4,245.5 595.5,233.2 606.5,224.4 617.6,240.3 628.6,234.9 639.7,241.3 650.7,232.1 661.8,250.6 672.8,259.7 683.9,281.5 694.9,295.8 706.0,306.0"/>
<text x="54" y="346" font-family="Arial" font-size="12" fill="#1f77b4">159567.SZ-588000.SH</text>
<polyline fill="none" stroke="#2ca02c" stroke-width="2" points="54.0,100.5 65.1,102.5 76.1,101.4 87.2,97.0 98.2,93.0 109.3,94.5 120.3,92.1 131.4,89.2 142.4,88.9 153.5,106.6 164.5,92.8 175.6,93.9 186.6,94.3 197.7,91.3 208.7,93.0 219.8,90.1 230.8,91.8 241.9,88.0 252.9,89.6 264.0,90.4 275.0,89.3 286.1,95.2 297.1,93.5 308.2,92.8 319.2,94.7 330.3,96.4 341.3,95.1 352.4,97.2 363.4,96.0 374.5,95.7 385.5,96.4 396.6,98.2 407.6,97.7 418.7,96.7 429.7,98.3 440.8,97.7 451.8,99.4 462.9,100.4 473.9,97.8 485.0,98.4 496.0,99.6 507.1,102.3 518.1,100.6 529.2,102.1 540.2,99.7 551.3,102.8 562.3,106.3 573.4,105.9 584.4,105.0 595.5,106.7 606.5,106.7 617.6,104.8 628.6,105.3 639.7,105.9 650.7,103.7 661.8,103.1 672.8,102.9 683.9,103.3 694.9,102.9 706.0,104.8"/>
<text x="204" y="346" font-family="Arial" font-size="12" fill="#2ca02c">159567.SZ-159557.SZ</text>
</svg>
