<svg xmlns="http://www.w3.org/2000/svg" width="760" height="360" viewBox="0 0 760 360">
<rect width="100%" height="100%" fill="white"/>
<text x="54" y="28" font-family="Arial" font-size="16" fill="#111">60 trading days cumulative returns</text>
<line x1="54" y1="231.8" x2="706" y2="231.8" stroke="#999" stroke-width="1"/>
<polyline fill="none" stroke="#1f77b4" stroke-width="2" points="54.0,231.8 65.1,232.8 76.1,232.5 87.2,220.7 98.2,220.0 109.3,221.4 120.3,222.5 131.4,225.0 142.4,226.8 153.5,241.0 164.5,239.3 175.6,240.7 186.6,243.5 197.7,244.2 208.7,243.2 219.8,247.1 230.8,242.1 241.9,245.7 252.9,245.3 264.0,248.2 275.0,252.1 286.1,258.5 297.1,263.9 308.2,269.2 319.2,270.3 330.3,272.4 341.3,267.8 352.4,267.8 363.4,270.7 374.5,272.4 385.5,275.7 396.6,284.6 407.6,274.9 418.7,279.6 429.7,285.7 440.8,292.4 451.8,293.5 462.9,296.0 473.9,303.5 485.0,303.5 496.0,301.0 507.1,304.2 518.1,296.4 529.2,295.6 540.2,301.4 551.3,304.2 562.3,301.7 573.4,303.1 584.4,305.6 595.5,299.9 606.5,303.5 617.6,306.0 628.6,289.6 639.7,296.0 650.7,284.9 661.8,283.2 672.8,269.9 683.9,264.2 694.9,273.9 706.0,275.3"/>
<text x="54" y="346" font-family="Arial" font-size="12" fill="#1f77b4">159567.SZ</text>
<polyline fill="none" stroke="#2ca02c" stroke-width="2" points="54.0,231.8 65.1,229.6 76.1,223.5 87.2,222.9 98.2,219.8 109.3,219.6 120.3,214.1 131.4,218.6 142.4,213.7 153.5,217.8 164.5,213.3 175.6,201.6 186.6,206.1 197.7,204.7 208.7,189.2 219.8,171.6 230.8,166.7 241.9,174.9 252.9,158.5 264.0,157.5 275.0,147.9 286.1,157.7 297.1,163.2 308.2,160.0 319.2,146.7 330.3,134.9 341.3,148.9 352.4,143.6 363.4,121.8 374.5,127.7 385.5,138.9 396.6,132.8 407.6,152.0 418.7,169.6 429.7,164.3 440.8,156.1 451.8,154.3 462.9,167.9 473.9,183.5 485.0,169.4 496.0,171.6 507.1,169.2 518.1,169.2 529.2,152.0 540.2,149.8 551.3,133.4 562.3,118.1 573.4,110.4 584.4,116.9 595.5,102.6 606.5,86.5 617.6,95.4 628.6,72.8 639.7,54.0 650.7,64.6 661.8,98.1 672.8,101.4 683.9,98.7 694.9,96.7 706.0,93.0"/>
<text x="204" y="346" font-family="Arial" font-size="12" fill="#2ca02c">588000.SH</text>
<polyline fill="none" stroke="#d62728" stroke-width="2" points="54.0,231.8 65.1,235.5 76.1,233.6 87.2,224.1 98.2,221.9 109.3,226.7 120.3,226.4 131.4,228.2 142.4,231.0 153.5,240.5 164.5,240.1 175.6,242.1 186.6,243.4 197.7,242.7 208.7,242.7 219.8,244.9 230.8,240.8 241.9,244.7 252.9,243.8 264.0,245.1 275.0,249.6 286.1,257.0 297.1,261.1 308.2,267.0 319.2,266.6 330.3,267.9 341.3,265.5 352.4,265.0 363.4,266.8 374.5,266.3 385.5,271.1 396.6,278.9 407.6,271.1 418.7,273.1 429.7,276.3 440.8,283.5 451.8,285.4 462.9,286.5 473.9,294.1 485.0,295.8 496.0,292.8 507.1,295.6 518.1,289.5 529.2,289.3 540.2,295.2 551.3,297.8 562.3,295.6 573.4,295.4 584.4,297.2 595.5,290.9 606.5,292.6 617.6,295.0 628.6,280.0 639.7,286.5 650.7,283.3 661.8,276.3 672.8,265.5 683.9,259.2 694.9,267.2 706.0,269.4"/>
<text x="354" y="346" font-family="Arial" font-size="12" fill="#d62728">159557.SZ</text>
</svg>
