<svg xmlns="http://www.w3.org/2000/svg" width="760" height="360" viewBox="0 0 760 360">
<rect width="100%" height="100%" fill="white"/>
<text x="54" y="28" font-family="Arial" font-size="16" fill="#111">60 trading days cumulative excess</text>
<line x1="54" y1="100.9" x2="706" y2="100.9" stroke="#999" stroke-width="1"/>
<polyline fill="none" stroke="#1f77b4" stroke-width="2" points="54.0,100.9 65.1,86.5 76.1,81.2 87.2,76.1 98.2,63.2 109.3,54.0 120.3,57.2 131.4,58.6 142.4,76.5 153.5,80.9 164.5,85.7 175.6,89.3 186.6,95.5 197.7,82.6 208.7,85.2 219.8,87.1 230.8,94.3 241.9,92.3 252.9,99.7 264.0,111.6 275.0,114.5 286.1,129.1 297.1,127.4 308.2,129.7 319.2,145.5 330.3,169.4 341.3,169.0 352.4,164.1 363.4,181.8 374.5,186.1 385.5,201.2 396.6,197.8 407.6,198.0 418.7,207.6 429.7,223.5 440.8,238.8 451.8,218.2 462.9,224.0 473.9,251.2 485.0,246.8 496.0,238.2 507.1,255.2 518.1,223.0 529.2,209.0 540.2,221.8 551.3,238.6 562.3,241.8 573.4,229.8 584.4,221.2 595.5,236.7 606.5,231.5 617.6,237.8 628.6,228.7 639.7,246.8 650.7,255.8 661.8,277.2 672.8,291.1 683.9,301.1 694.9,296.9 706.0,306.0"/>
<text x="54" y="346" font-family="Arial" font-size="12" fill="#1f77b4">159567.SZ-588000.SH</text>
<polyline fill="none" stroke="#2ca02c" stroke-width="2" points="54.0,100.9 65.1,96.6 76.1,92.7 87.2,94.1 98.2,91.8 109.3,88.9 120.3,88.6 131.4,106.0 142.4,92.4 153.5,93.5 164.5,94.0 175.6,91.0 186.6,92.7 197.7,89.8 208.7,91.5 219.8,87.7 230.8,89.3 241.9,90.1 252.9,89.0 264.0,94.8 275.0,93.2 286.1,92.5 297.1,94.4 308.2,96.0 319.2,94.8 330.3,96.8 341.3,95.6 352.4,95.4 363.4,96.0 374.5,97.8 385.5,97.3 396.6,96.4 407.6,97.9 418.7,97.4 429.7,99.1 440.8,100.1 451.8,97.4 462.9,98.1 473.9,99.3 485.0,101.9 496.0,100.2 507.1,101.7 518.1,99.4 529.2,102.4 540.2,105.9 551.3,105.5 562.3,104.7 573.4,106.3 584.4,106.3 595.5,104.5 606.5,104.9 617.6,105.5 628.6,103.3 639.7,102.7 650.7,102.6 661.8,103.0 672.8,102.6 683.9,104.5 694.9,105.3 706.0,105.8"/>
<text x="204" y="346" font-family="Arial" font-size="12" fill="#2ca02c">159567.SZ-159557.SZ</text>
</svg>
