<svg xmlns="http://www.w3.org/2000/svg" width="760" height="360" viewBox="0 0 760 360">
<rect width="100%" height="100%" fill="white"/>
<text x="54" y="28" font-family="Arial" font-size="16" fill="#111">60 trading days cumulative excess</text>
<line x1="54" y1="54.5" x2="706" y2="54.5" stroke="#999" stroke-width="1"/>
<polyline fill="none" stroke="#1f77b4" stroke-width="2" points="54.0,54.5 65.1,56.0 76.1,71.6 87.2,74.8 98.2,78.9 109.3,81.9 120.3,87.4 131.4,77.7 142.4,80.1 153.5,81.5 164.5,87.7 175.6,85.6 186.6,91.9 197.7,100.4 208.7,103.2 219.8,115.7 230.8,113.9 241.9,115.8 252.9,129.8 264.0,150.2 275.0,150.5 286.1,145.7 297.1,161.2 308.2,164.7 319.2,177.3 330.3,173.5 341.3,172.9 352.4,180.6 363.4,194.4 374.5,207.6 385.5,190.1 396.6,195.2 407.6,218.6 418.7,214.5 429.7,206.6 440.8,220.3 451.8,193.4 462.9,180.5 473.9,190.9 485.0,204.7 496.0,207.3 507.1,196.5 518.1,188.0 529.2,201.6 540.2,197.3 551.3,202.4 562.3,195.5 573.4,211.5 584.4,218.5 595.5,236.9 606.5,249.4 617.6,258.0 628.6,253.9 639.7,262.7 650.7,281.3 661.8,275.0 672.8,282.3 683.9,306.0 694.9,286.1 706.0,252.4"/>
<text x="54" y="346" font-family="Arial" font-size="12" fill="#1f77b4">159567.SZ-588000.SH</text>
<polyline fill="none" stroke="#2ca02c" stroke-width="2" points="54.0,54.5 65.1,68.3 76.1,57.6 87.2,58.3 98.2,58.6 109.3,56.2 120.3,57.6 131.4,55.7 142.4,57.0 153.5,54.0 164.5,55.3 175.6,55.8 186.6,54.9 197.7,59.0 208.7,57.7 219.8,57.2 230.8,58.5 241.9,59.8 252.9,58.9 264.0,60.3 275.0,59.6 286.1,59.2 297.1,59.7 308.2,61.1 319.2,60.6 330.3,59.6 341.3,60.6 352.4,60.0 363.4,61.3 374.5,62.0 385.5,60.1 396.6,60.6 407.6,61.4 418.7,63.5 429.7,62.0 440.8,62.9 451.8,61.4 462.9,63.6 473.9,66.1 485.0,65.6 496.0,64.9 507.1,66.1 518.1,65.9 529.2,64.4 540.2,64.9 551.3,65.2 562.3,63.8 573.4,63.3 584.4,63.1 595.5,63.2 606.5,63.0 617.6,64.5 628.6,65.0 639.7,65.6 650.7,67.2 661.8,67.3 672.8,66.3 683.9,66.1 694.9,59.3 706.0,64.0"/>
<text x="204" y="346" font-family="Arial" font-size="12" fill="#2ca02c">159567.SZ-159557.SZ</text>
</svg>
