<svg xmlns="http://www.w3.org/2000/svg" width="760" height="360" viewBox="0 0 760 360">
<rect width="100%" height="100%" fill="white"/>
<text x="54" y="28" font-family="Arial" font-size="16" fill="#111">60 trading days cumulative returns</text>
<line x1="54" y1="221.9" x2="706" y2="221.9" stroke="#999" stroke-width="1"/>
<polyline fill="none" stroke="#1f77b4" stroke-width="2" points="54.0,221.9 65.1,221.2 76.1,222.6 87.2,223.6 98.2,226.1 109.3,227.9 120.3,241.9 131.4,240.2 142.4,241.6 153.5,244.4 164.5,245.1 175.6,244.1 186.6,247.9 197.7,243.0 208.7,246.5 219.8,246.2 230.8,249.0 241.9,252.9 252.9,259.2 264.0,264.5 275.0,269.7 286.1,270.8 297.1,272.9 308.2,268.3 319.2,268.3 330.3,271.2 341.3,272.9 352.4,276.1 363.4,284.9 374.5,275.4 385.5,280.0 396.6,285.9 407.6,292.6 418.7,293.7 429.7,296.1 440.8,303.5 451.8,303.5 462.9,301.1 473.9,304.2 485.0,296.5 496.0,295.8 507.1,301.4 518.1,304.2 529.2,301.8 540.2,303.2 551.3,305.6 562.3,300.0 573.4,303.5 584.4,306.0 595.5,289.8 606.5,296.1 617.6,285.2 628.6,283.5 639.7,270.5 650.7,264.8 661.8,274.3 672.8,275.7 683.9,276.4 694.9,266.2 706.0,270.1"/>
<text x="54" y="346" font-family="Arial" font-size="12" fill="#1f77b4">159567.SZ</text>
<polyline fill="none" stroke="#2ca02c" stroke-width="2" points="54.0,221.9 65.1,218.8 76.1,218.6 87.2,213.1 98.2,217.6 109.3,212.7 120.3,216.8 131.4,212.3 142.4,200.6 153.5,205.1 164.5,203.8 175.6,188.4 186.6,170.9 197.7,166.0 208.7,174.2 219.8,157.8 230.8,156.8 241.9,147.3 252.9,157.0 264.0,162.5 275.0,159.4 286.1,146.1 297.1,134.4 308.2,148.3 319.2,143.0 330.3,121.4 341.3,127.2 352.4,138.3 363.4,132.3 374.5,151.4 385.5,168.9 396.6,163.6 407.6,155.5 418.7,153.7 429.7,167.2 440.8,182.7 451.8,168.7 462.9,170.9 473.9,168.5 485.0,168.5 496.0,151.4 507.1,149.2 518.1,132.9 529.2,117.7 540.2,110.1 551.3,116.5 562.3,102.3 573.4,86.3 584.4,95.1 595.5,72.7 606.5,54.0 617.6,64.5 628.6,97.8 639.7,101.1 650.7,98.4 661.8,96.5 672.8,92.8 683.9,57.1 694.9,80.3 706.0,101.5"/>
<text x="204" y="346" font-family="Arial" font-size="12" fill="#2ca02c">588000.SH</text>
<polyline fill="none" stroke="#d62728" stroke-width="2" points="54.0,221.9 65.1,219.7 76.1,224.5 87.2,224.1 98.2,225.9 109.3,228.7 120.3,238.2 131.4,237.8 142.4,239.8 153.5,241.1 164.5,240.4 175.6,240.4 186.6,242.6 197.7,238.5 208.7,242.4 219.8,241.5 230.8,242.8 241.9,247.2 252.9,254.6 264.0,258.7 275.0,264.6 286.1,264.3 297.1,265.6 308.2,263.2 319.2,262.6 330.3,264.5 341.3,263.9 352.4,268.7 363.4,276.5 374.5,268.7 385.5,270.8 396.6,273.9 407.6,281.1 418.7,283.0 429.7,284.1 440.8,291.7 451.8,293.3 462.9,290.4 473.9,293.2 485.0,287.0 496.0,286.9 507.1,292.8 518.1,295.4 529.2,293.2 540.2,293.0 551.3,294.8 562.3,288.5 573.4,290.2 584.4,292.6 595.5,277.6 606.5,284.1 617.6,280.9 628.6,273.9 639.7,263.2 650.7,256.9 661.8,264.8 672.8,267.0 683.9,265.9 694.9,258.7 706.0,262.6"/>
<text x="354" y="346" font-family="Arial" font-size="12" fill="#d62728">159557.SZ</text>
</svg>
