<svg xmlns="http://www.w3.org/2000/svg" width="760" height="360" viewBox="0 0 760 360">
<rect width="100%" height="100%" fill="white"/>
<text x="54" y="28" font-family="Arial" font-size="16" fill="#111">60 trading days cumulative returns</text>
<line x1="54" y1="230.0" x2="706" y2="230.0" stroke="#999" stroke-width="1"/>
<polyline fill="none" stroke="#1f77b4" stroke-width="2" points="54.0,230.0 65.1,235.5 76.1,235.5 87.2,236.5 98.2,236.1 109.3,225.0 120.3,224.3 131.4,225.6 142.4,226.7 153.5,229.0 164.5,230.7 175.6,244.3 186.6,242.6 197.7,243.9 208.7,246.7 219.8,247.3 230.8,246.3 241.9,250.0 252.9,245.3 264.0,248.7 275.0,248.4 286.1,251.1 297.1,254.8 308.2,260.9 319.2,266.0 330.3,271.1 341.3,272.1 352.4,274.1 363.4,269.7 374.5,269.7 385.5,272.4 396.6,274.1 407.6,277.2 418.7,285.7 429.7,276.5 440.8,280.9 451.8,286.7 462.9,293.1 473.9,294.1 485.0,296.5 496.0,303.6 507.1,303.6 518.1,301.3 529.2,304.3 540.2,296.8 551.3,296.2 562.3,301.6 573.4,304.3 584.4,301.9 595.5,303.3 606.5,305.7 617.6,300.2 628.6,303.6 639.7,306.0 650.7,290.4 661.8,296.5 672.8,286.0 683.9,284.3 694.9,271.8 706.0,266.3"/>
<text x="54" y="346" font-family="Arial" font-size="12" fill="#1f77b4">159567.SZ</text>
<polyline fill="none" stroke="#2ca02c" stroke-width="2" points="54.0,230.0 65.1,232.0 76.1,227.7 87.2,225.6 98.2,219.7 109.3,219.1 120.3,216.1 131.4,215.9 142.4,210.5 153.5,214.9 164.5,210.1 175.6,214.1 186.6,209.7 197.7,198.2 208.7,202.6 219.8,201.3 230.8,186.2 241.9,168.9 252.9,164.1 264.0,172.2 275.0,156.1 286.1,155.1 297.1,145.8 308.2,155.3 319.2,160.7 330.3,157.6 341.3,144.6 352.4,133.1 363.4,146.7 374.5,141.5 385.5,120.3 396.6,126.0 407.6,136.9 418.7,131.0 429.7,149.8 440.8,167.0 451.8,161.8 462.9,153.8 473.9,152.1 485.0,165.3 496.0,180.6 507.1,166.8 518.1,168.9 529.2,166.6 540.2,166.6 551.3,149.8 562.3,147.7 573.4,131.6 584.4,116.6 595.5,109.2 606.5,115.5 617.6,101.5 628.6,85.8 639.7,94.4 650.7,72.4 661.8,54.0 672.8,64.3 683.9,97.1 694.9,100.4 706.0,97.7"/>
<text x="204" y="346" font-family="Arial" font-size="12" fill="#2ca02c">588000.SH</text>
<polyline fill="none" stroke="#d62728" stroke-width="2" points="54.0,230.0 65.1,234.6 76.1,234.3 87.2,237.8 98.2,236.1 109.3,227.0 120.3,224.9 131.4,229.5 142.4,229.2 153.5,230.9 164.5,233.6 175.6,242.6 186.6,242.3 197.7,244.2 208.7,245.4 219.8,244.7 230.8,244.7 241.9,246.9 252.9,243.0 264.0,246.7 275.0,245.8 286.1,247.0 297.1,251.3 308.2,258.4 319.2,262.3 330.3,267.9 341.3,267.6 352.4,268.8 363.4,266.5 374.5,266.0 385.5,267.7 396.6,267.2 407.6,271.8 418.7,279.3 429.7,271.8 440.8,273.8 451.8,276.8 462.9,283.7 473.9,285.5 485.0,286.5 496.0,293.8 507.1,295.4 518.1,292.5 529.2,295.2 540.2,289.3 551.3,289.2 562.3,294.8 573.4,297.3 584.4,295.2 595.5,295.0 606.5,296.8 617.6,290.8 628.6,292.4 639.7,294.7 650.7,280.3 661.8,286.5 672.8,283.5 683.9,276.8 694.9,266.5 706.0,260.5"/>
<text x="354" y="346" font-family="Arial" font-size="12" fill="#d62728">159557.SZ</text>
</svg>
