<svg xmlns="http://www.w3.org/2000/svg" width="760" height="360" viewBox="0 0 760 360">
<rect width="100%" height="100%" fill="white"/>
<text x="54" y="28" font-family="Arial" font-size="16" fill="#111">60 trading days cumulative returns</text>
<line x1="54" y1="231.3" x2="706" y2="231.3" stroke="#999" stroke-width="1"/>
<polyline fill="none" stroke="#1f77b4" stroke-width="2" points="54.0,231.3 65.1,230.9 76.1,218.9 87.2,218.2 98.2,219.6 109.3,220.7 120.3,223.3 131.4,225.1 142.4,239.7 153.5,237.8 164.5,239.3 175.6,242.2 186.6,242.9 197.7,241.8 208.7,245.9 219.8,240.8 230.8,244.4 241.9,244.0 252.9,247.0 264.0,251.0 275.0,257.5 286.1,263.0 297.1,268.5 308.2,269.6 319.2,271.7 330.3,267.0 341.3,267.0 352.4,269.9 363.4,271.7 374.5,275.0 385.5,284.1 396.6,274.3 407.6,279.0 418.7,285.2 429.7,292.1 440.8,293.2 451.8,295.8 462.9,303.4 473.9,303.4 485.0,300.9 496.0,304.2 507.1,296.2 518.1,295.4 529.2,301.3 540.2,304.2 551.3,301.6 562.3,303.1 573.4,305.6 584.4,299.8 595.5,303.4 606.5,306.0 617.6,289.2 628.6,295.8 639.7,284.5 650.7,282.7 661.8,269.2 672.8,263.4 683.9,273.2 694.9,274.7 706.0,275.4"/>
<text x="54" y="346" font-family="Arial" font-size="12" fill="#1f77b4">159567.SZ</text>
<polyline fill="none" stroke="#2ca02c" stroke-width="2" points="54.0,231.3 65.1,225.1 76.1,224.6 87.2,221.4 98.2,221.2 109.3,215.6 120.3,220.2 131.4,215.3 142.4,219.4 153.5,214.9 164.5,203.0 175.6,207.5 186.6,206.2 197.7,190.5 208.7,172.7 219.8,167.8 230.8,176.1 241.9,159.5 252.9,158.5 264.0,148.8 275.0,158.7 286.1,164.2 297.1,161.0 308.2,147.6 319.2,135.7 330.3,149.8 341.3,144.4 352.4,122.5 363.4,128.4 374.5,139.7 385.5,133.5 396.6,152.9 407.6,170.7 418.7,165.4 429.7,157.1 440.8,155.3 451.8,169.0 462.9,184.8 473.9,170.5 485.0,172.7 496.0,170.3 507.1,170.3 518.1,152.9 529.2,150.8 540.2,134.1 551.3,118.7 562.3,111.0 573.4,117.5 584.4,103.1 595.5,86.8 606.5,95.7 617.6,73.0 628.6,54.0 639.7,64.7 650.7,98.5 661.8,101.9 672.8,99.1 683.9,97.1 694.9,93.4 706.0,57.2"/>
<text x="204" y="346" font-family="Arial" font-size="12" fill="#2ca02c">588000.SH</text>
<polyline fill="none" stroke="#d62728" stroke-width="2" points="54.0,231.3 65.1,229.4 76.1,219.6 87.2,217.3 98.2,222.3 109.3,221.9 120.3,223.8 131.4,226.7 142.4,236.4 153.5,236.1 164.5,238.2 175.6,239.5 186.6,238.7 197.7,238.7 208.7,241.0 219.8,236.8 230.8,240.8 241.9,239.9 252.9,241.2 264.0,245.8 275.0,253.5 286.1,257.7 297.1,263.8 308.2,263.4 319.2,264.7 330.3,262.3 341.3,261.7 352.4,263.6 363.4,263.0 374.5,268.0 385.5,276.0 396.6,268.0 407.6,270.1 418.7,273.4 429.7,280.8 440.8,282.7 451.8,283.9 462.9,291.7 473.9,293.4 485.0,290.4 496.0,293.2 507.1,286.9 518.1,286.7 529.2,292.9 540.2,295.5 551.3,293.2 562.3,293.1 573.4,295.0 584.4,288.5 595.5,290.2 606.5,292.7 617.6,277.2 628.6,283.9 639.7,280.6 650.7,273.4 661.8,262.3 672.8,255.8 683.9,264.0 694.9,266.3 706.0,265.1"/>
<text x="354" y="346" font-family="Arial" font-size="12" fill="#d62728">159557.SZ</text>
</svg>
