<svg xmlns="http://www.w3.org/2000/svg" width="760" height="360" viewBox="0 0 760 360">
<rect width="100%" height="100%" fill="white"/>
<text x="54" y="28" font-family="Arial" font-size="16" fill="#111">60 trading days cumulative returns</text>
<line x1="54" y1="236.2" x2="706" y2="236.2" stroke="#999" stroke-width="1"/>
<polyline fill="none" stroke="#1f77b4" stroke-width="2" points="54.0,236.2 65.1,233.3 76.1,235.8 87.2,213.2 98.2,212.3 109.3,216.9 120.3,214.4 131.4,214.4 142.4,221.0 153.5,221.0 164.5,222.2 175.6,221.8 186.6,208.2 197.7,207.4 208.7,209.1 219.8,210.3 230.8,213.2 241.9,215.2 252.9,231.7 264.0,229.6 275.0,231.2 286.1,234.5 297.1,235.4 308.2,234.1 319.2,238.6 330.3,232.9 341.3,237.0 352.4,236.6 363.4,239.9 374.5,244.4 385.5,251.8 396.6,257.9 407.6,264.1 418.7,265.3 429.7,267.8 440.8,262.5 451.8,262.5 462.9,265.7 473.9,267.8 485.0,271.5 496.0,281.8 507.1,270.7 518.1,276.0 529.2,283.0 540.2,290.8 551.3,292.0 562.3,294.9 573.4,303.5 584.4,303.5 595.5,300.7 606.5,304.4 617.6,295.3 628.6,294.5 639.7,301.1 650.7,304.4 661.8,301.5 672.8,303.1 683.9,306.0 694.9,299.4 706.0,303.5"/>
<text x="54" y="346" font-family="Arial" font-size="12" fill="#1f77b4">159567.SZ</text>
<polyline fill="none" stroke="#2ca02c" stroke-width="2" points="54.0,236.2 65.1,238.7 76.1,246.5 87.2,236.4 98.2,245.2 109.3,246.5 120.3,242.5 131.4,223.8 142.4,226.0 153.5,221.1 164.5,218.6 175.6,211.6 186.6,210.9 197.7,207.3 208.7,207.1 219.8,200.8 230.8,206.0 241.9,200.3 252.9,205.1 264.0,199.9 275.0,186.3 286.1,191.5 297.1,190.0 308.2,172.1 319.2,151.9 330.3,146.2 341.3,155.7 352.4,136.7 363.4,135.6 374.5,124.6 385.5,135.8 396.6,142.2 407.6,138.5 418.7,123.2 429.7,109.7 440.8,125.7 451.8,119.6 462.9,94.6 473.9,101.3 485.0,114.2 496.0,107.2 507.1,129.3 518.1,149.6 529.2,143.5 540.2,134.0 551.3,132.0 562.3,147.6 573.4,165.6 584.4,149.4 595.5,151.9 606.5,149.1 617.6,149.1 628.6,129.3 639.7,126.8 650.7,107.9 661.8,90.3 672.8,81.5 683.9,88.9 694.9,72.5 706.0,54.0"/>
<text x="204" y="346" font-family="Arial" font-size="12" fill="#2ca02c">588000.SH</text>
<polyline fill="none" stroke="#d62728" stroke-width="2" points="54.0,236.2 65.1,237.2 76.1,238.3 87.2,217.7 98.2,219.9 109.3,224.7 120.3,204.6 131.4,218.4 142.4,223.9 153.5,223.5 164.5,227.7 175.6,225.6 186.6,214.8 197.7,212.2 208.7,217.7 219.8,217.3 230.8,219.4 241.9,222.6 252.9,233.4 264.0,233.0 275.0,235.3 286.1,236.8 297.1,236.0 308.2,236.0 319.2,238.5 330.3,233.8 341.3,238.3 352.4,237.2 363.4,238.7 374.5,243.8 385.5,252.3 396.6,256.9 407.6,263.7 418.7,263.3 429.7,264.8 440.8,262.0 451.8,261.4 462.9,263.5 473.9,262.9 485.0,268.4 496.0,277.3 507.1,268.4 518.1,270.7 529.2,274.3 540.2,282.6 551.3,284.7 562.3,286.0 573.4,294.6 584.4,296.6 595.5,293.2 606.5,296.3 617.6,289.3 628.6,289.1 639.7,295.9 650.7,298.9 661.8,296.3 672.8,296.1 683.9,298.2 694.9,291.0 706.0,292.9"/>
<text x="354" y="346" font-family="Arial" font-size="12" fill="#d62728">159557.SZ</text>
</svg>
