<svg xmlns="http://www.w3.org/2000/svg" width="760" height="360" viewBox="0 0 760 360">
<rect width="100%" height="100%" fill="white"/>
<text x="54" y="28" font-family="Arial" font-size="16" fill="#111">60 trading days cumulative excess</text>
<line x1="54" y1="58.9" x2="706" y2="58.9" stroke="#999" stroke-width="1"/>
<polyline fill="none" stroke="#1f77b4" stroke-width="2" points="54.0,58.9 65.1,63.3 76.1,66.5 87.2,72.3 98.2,61.2 109.3,63.6 120.3,65.2 131.4,71.8 142.4,69.8 153.5,76.5 164.5,86.5 175.6,89.3 186.6,102.5 197.7,100.8 208.7,102.9 219.8,117.4 230.8,139.1 241.9,139.1 252.9,134.3 264.0,150.5 275.0,154.4 286.1,167.9 297.1,164.4 308.2,164.2 319.2,172.7 330.3,187.2 341.3,201.1 352.4,182.5 363.4,187.8 374.5,212.6 385.5,208.4 396.6,200.4 407.6,215.3 418.7,186.4 429.7,173.3 440.8,184.6 451.8,199.6 462.9,202.5 473.9,191.3 485.0,183.0 496.0,197.2 507.1,192.5 518.1,198.1 529.2,190.3 540.2,207.0 551.3,214.8 562.3,234.2 573.4,247.1 584.4,256.2 595.5,252.2 606.5,260.9 617.6,280.7 628.6,274.3 639.7,280.7 650.7,306.0 661.8,284.4 672.8,248.8 683.9,232.4 694.9,229.5 706.0,241.0"/>
<text x="54" y="346" font-family="Arial" font-size="12" fill="#1f77b4">159567.SZ-588000.SH</text>
<polyline fill="none" stroke="#2ca02c" stroke-width="2" points="54.0,58.9 65.1,59.3 76.1,56.7 87.2,58.2 98.2,55.9 109.3,57.4 120.3,54.0 131.4,55.4 142.4,56.1 153.5,55.1 164.5,59.8 175.6,58.4 186.6,57.8 197.7,59.4 208.7,60.8 219.8,59.7 230.8,61.4 241.9,60.5 252.9,60.2 264.0,60.8 275.0,62.3 286.1,61.8 297.1,60.8 308.2,62.0 319.2,61.5 330.3,62.9 341.3,63.7 352.4,61.5 363.4,62.1 374.5,63.1 385.5,65.4 396.6,63.8 407.6,64.9 418.7,63.1 429.7,65.6 440.8,68.5 451.8,68.1 462.9,67.3 473.9,68.7 485.0,68.5 496.0,66.9 507.1,67.4 518.1,67.8 529.2,66.1 540.2,65.5 551.3,65.3 562.3,65.6 573.4,65.3 584.4,66.9 595.5,67.5 606.5,68.1 617.6,70.0 628.6,70.1 639.7,68.7 650.7,68.7 661.8,60.8 672.8,66.0 683.9,63.6 694.9,64.2 706.0,65.9"/>
<text x="204" y="346" font-family="Arial" font-size="12" fill="#2ca02c">159567.SZ-159557.SZ</text>
</svg>
