<svg xmlns="http://www.w3.org/2000/svg" width="760" height="360" viewBox="0 0 760 360">
<rect width="100%" height="100%" fill="white"/>
<text x="54" y="28" font-family="Arial" font-size="16" fill="#111">60 trading days cumulative excess</text>
<line x1="54" y1="59.4" x2="706" y2="59.4" stroke="#999" stroke-width="1"/>
<polyline fill="none" stroke="#1f77b4" stroke-width="2" points="54.0,59.4 65.1,62.7 76.1,68.6 87.2,57.2 98.2,59.6 109.3,61.3 120.3,68.0 131.4,65.9 142.4,72.7 153.5,83.1 164.5,85.8 175.6,99.3 186.6,97.6 197.7,99.7 208.7,114.4 219.8,136.4 230.8,136.3 241.9,131.5 252.9,147.9 264.0,151.8 275.0,165.6 286.1,162.2 297.1,162.1 308.2,170.7 319.2,185.4 330.3,199.5 341.3,180.6 352.4,186.0 363.4,211.1 374.5,206.9 385.5,198.8 396.6,214.1 407.6,184.7 418.7,171.5 429.7,183.0 440.8,198.3 451.8,201.2 462.9,190.0 473.9,181.7 485.0,196.0 496.0,191.3 507.1,197.0 518.1,189.0 529.2,205.8 540.2,213.8 551.3,233.5 562.3,246.5 573.4,255.8 584.4,251.7 595.5,260.5 606.5,280.5 617.6,274.1 628.6,280.3 639.7,306.0 650.7,283.9 661.8,248.0 672.8,231.1 683.9,228.1 694.9,239.9 706.0,245.2"/>
<text x="54" y="346" font-family="Arial" font-size="12" fill="#1f77b4">159567.SZ-588000.SH</text>
<polyline fill="none" stroke="#2ca02c" stroke-width="2" points="54.0,59.4 65.1,56.8 76.1,58.3 87.2,55.9 98.2,57.5 109.3,54.0 120.3,55.5 131.4,56.1 142.4,55.1 153.5,60.0 164.5,58.6 175.6,57.9 186.6,59.5 197.7,61.0 208.7,59.9 219.8,61.7 230.8,60.7 241.9,60.4 252.9,61.0 264.0,62.6 275.0,62.0 286.1,61.0 297.1,62.3 308.2,61.7 319.2,63.2 330.3,64.0 341.3,61.8 352.4,62.3 363.4,63.4 374.5,65.7 385.5,64.1 396.6,65.3 407.6,63.4 418.7,66.0 429.7,69.0 440.8,68.5 451.8,67.7 462.9,69.1 473.9,69.0 485.0,67.3 496.0,67.8 507.1,68.2 518.1,66.5 529.2,65.9 540.2,65.7 551.3,66.0 562.3,65.7 573.4,67.3 584.4,68.0 595.5,68.6 606.5,70.5 617.6,70.6 628.6,69.2 639.7,69.1 650.7,61.1 661.8,66.4 672.8,64.0 683.9,64.6 694.9,66.3 706.0,65.4"/>
<text x="204" y="346" font-family="Arial" font-size="12" fill="#2ca02c">159567.SZ-159557.SZ</text>
</svg>
