<svg xmlns="http://www.w3.org/2000/svg" width="760" height="360" viewBox="0 0 760 360">
<rect width="100%" height="100%" fill="white"/>
<text x="54" y="28" font-family="Arial" font-size="16" fill="#111">60 trading days cumulative excess</text>
<line x1="54" y1="55.9" x2="706" y2="55.9" stroke="#999" stroke-width="1"/>
<polyline fill="none" stroke="#1f77b4" stroke-width="2" points="54.0,55.9 65.1,58.4 76.1,60.1 87.2,66.8 98.2,64.7 109.3,71.6 120.3,81.9 131.4,84.7 142.4,98.2 153.5,96.5 164.5,98.6 175.6,113.4 186.6,135.5 197.7,135.5 208.7,130.7 219.8,147.2 230.8,151.1 241.9,165.0 252.9,161.4 264.0,161.3 275.0,169.9 286.1,184.7 297.1,199.0 308.2,179.9 319.2,185.4 330.3,210.6 341.3,206.4 352.4,198.2 363.4,213.5 374.5,184.0 385.5,170.6 396.6,182.2 407.6,197.6 418.7,200.5 429.7,189.2 440.8,180.7 451.8,195.2 462.9,190.4 473.9,196.1 485.0,188.1 496.0,205.1 507.1,213.1 518.1,232.9 529.2,246.1 540.2,255.3 551.3,251.3 562.3,260.1 573.4,280.2 584.4,273.7 595.5,280.2 606.5,306.0 617.6,283.9 628.6,247.7 639.7,230.8 650.7,227.8 661.8,239.6 672.8,244.9 683.9,282.4 694.9,248.0 706.0,230.0"/>
<text x="54" y="346" font-family="Arial" font-size="12" fill="#1f77b4">159567.SZ-588000.SH</text>
<polyline fill="none" stroke="#2ca02c" stroke-width="2" points="54.0,55.9 65.1,57.5 76.1,54.0 87.2,55.5 98.2,56.1 109.3,55.1 120.3,59.8 131.4,58.4 142.4,57.8 153.5,59.3 164.5,60.8 175.6,59.7 186.6,61.4 197.7,60.6 208.7,60.2 219.8,60.8 230.8,62.3 241.9,61.7 252.9,60.6 264.0,61.9 275.0,61.2 286.1,62.7 297.1,63.5 308.2,61.3 319.2,61.9 330.3,62.9 341.3,65.3 352.4,63.6 363.4,64.6 374.5,62.8 385.5,65.5 396.6,68.4 407.6,67.8 418.7,67.0 429.7,68.4 440.8,68.2 451.8,66.5 462.9,67.0 473.9,67.4 485.0,65.7 496.0,65.2 507.1,64.9 518.1,65.1 529.2,64.9 540.2,66.5 551.3,67.1 562.3,67.8 573.4,69.7 584.4,69.8 595.5,68.6 606.5,68.4 617.6,60.4 628.6,65.8 639.7,63.5 650.7,64.2 661.8,65.8 672.8,64.9 683.9,66.8 694.9,63.7 706.0,63.7"/>
<text x="204" y="346" font-family="Arial" font-size="12" fill="#2ca02c">159567.SZ-159557.SZ</text>
</svg>
