<svg xmlns="http://www.w3.org/2000/svg" width="760" height="360" viewBox="0 0 760 360">
<rect width="100%" height="100%" fill="white"/>
<text x="54" y="28" font-family="Arial" font-size="16" fill="#111">60 trading days cumulative excess</text>
<line x1="54" y1="83.3" x2="706" y2="83.3" stroke="#999" stroke-width="1"/>
<polyline fill="none" stroke="#1f77b4" stroke-width="2" points="54.0,83.3 65.1,78.5 76.1,73.7 87.2,62.6 98.2,54.0 109.3,56.8 120.3,58.2 131.4,74.9 142.4,78.8 153.5,83.2 164.5,86.5 175.6,92.4 186.6,80.9 197.7,83.4 208.7,85.1 219.8,91.8 230.8,89.7 241.9,96.6 252.9,107.0 264.0,109.8 275.0,123.4 286.1,121.7 297.1,123.8 308.2,138.6 319.2,160.8 330.3,160.7 341.3,155.9 352.4,172.4 363.4,176.3 374.5,190.2 385.5,186.8 396.6,186.6 407.6,195.4 418.7,210.1 429.7,224.4 440.8,205.4 451.8,210.8 462.9,236.1 473.9,231.9 485.0,223.7 496.0,239.1 507.1,209.5 518.1,196.1 529.2,207.8 540.2,223.2 551.3,226.1 562.3,214.8 573.4,206.4 584.4,220.9 595.5,216.1 606.5,221.8 617.6,213.8 628.6,230.7 639.7,238.8 650.7,258.6 661.8,271.8 672.8,281.1 683.9,277.0 694.9,285.8 706.0,306.0"/>
<text x="54" y="346" font-family="Arial" font-size="12" fill="#1f77b4">159567.SZ-588000.SH</text>
<polyline fill="none" stroke="#2ca02c" stroke-width="2" points="54.0,83.3 65.1,79.8 76.1,81.1 87.2,79.2 98.2,76.6 109.3,76.3 120.3,92.1 131.4,79.8 142.4,80.7 153.5,81.1 164.5,78.4 175.6,79.9 186.6,77.5 197.7,79.0 208.7,75.6 219.8,77.0 230.8,77.7 241.9,76.7 252.9,81.7 264.0,80.3 275.0,79.7 286.1,81.3 297.1,82.8 308.2,81.7 319.2,83.4 330.3,82.5 341.3,82.2 352.4,82.7 363.4,84.3 374.5,83.8 385.5,82.9 396.6,84.2 407.6,83.7 418.7,85.1 429.7,86.0 440.8,83.7 451.8,84.3 462.9,85.3 473.9,87.7 485.0,86.1 496.0,87.3 507.1,85.4 518.1,88.0 529.2,91.1 540.2,90.7 551.3,89.9 562.3,91.3 573.4,91.2 584.4,89.5 595.5,90.0 606.5,90.5 617.6,88.6 628.6,88.1 639.7,87.9 650.7,88.2 661.8,87.9 672.8,89.6 683.9,90.2 694.9,90.8 706.0,92.8"/>
<text x="204" y="346" font-family="Arial" font-size="12" fill="#2ca02c">159567.SZ-159557.SZ</text>
</svg>
