<svg xmlns="http://www.w3.org/2000/svg" width="760" height="360" viewBox="0 0 760 360">
<rect width="100%" height="100%" fill="white"/>
<text x="54" y="28" font-family="Arial" font-size="16" fill="#111">60 trading days cumulative returns</text>
<line x1="54" y1="234.7" x2="706" y2="234.7" stroke="#999" stroke-width="1"/>
<polyline fill="none" stroke="#1f77b4" stroke-width="2" points="54.0,234.7 65.1,234.1 76.1,237.5 87.2,235.7 98.2,235.7 109.3,240.7 120.3,240.7 131.4,241.6 142.4,241.3 153.5,230.9 164.5,230.3 175.6,231.6 186.6,232.5 197.7,234.7 208.7,236.3 219.8,248.8 230.8,247.3 241.9,248.5 252.9,251.0 264.0,251.7 275.0,250.7 286.1,254.2 297.1,249.8 308.2,252.9 319.2,252.6 330.3,255.1 341.3,258.6 352.4,264.2 363.4,268.9 374.5,273.7 385.5,274.6 396.6,276.5 407.6,272.4 418.7,272.4 429.7,274.9 440.8,276.5 451.8,279.3 462.9,287.2 473.9,278.7 485.0,282.8 496.0,288.1 507.1,294.1 518.1,295.0 529.2,297.2 540.2,303.8 551.3,303.8 562.3,301.6 573.4,304.4 584.4,297.5 595.5,296.9 606.5,301.9 617.6,304.4 628.6,302.2 639.7,303.5 650.7,305.7 661.8,300.7 672.8,303.8 683.9,306.0 694.9,291.6 706.0,297.2"/>
<text x="54" y="346" font-family="Arial" font-size="12" fill="#1f77b4">159567.SZ</text>
<polyline fill="none" stroke="#2ca02c" stroke-width="2" points="54.0,234.7 65.1,241.9 76.1,243.1 87.2,239.7 98.2,224.3 109.3,226.2 120.3,222.1 131.4,220.1 142.4,214.3 153.5,213.8 164.5,210.8 175.6,210.6 186.6,205.4 197.7,209.7 208.7,205.1 219.8,209.0 230.8,204.7 241.9,193.6 252.9,197.8 264.0,196.5 275.0,181.9 286.1,165.2 297.1,160.6 308.2,168.4 319.2,152.8 330.3,151.9 341.3,142.8 352.4,152.0 363.4,157.2 374.5,154.3 385.5,141.7 396.6,130.5 407.6,143.7 418.7,138.7 429.7,118.1 440.8,123.7 451.8,134.3 462.9,128.5 473.9,146.7 485.0,163.4 496.0,158.4 507.1,150.6 518.1,148.9 529.2,161.7 540.2,176.5 551.3,163.2 562.3,165.2 573.4,163.0 584.4,163.0 595.5,146.7 606.5,144.6 617.6,129.1 628.6,114.6 639.7,107.4 650.7,113.5 661.8,100.0 672.8,84.8 683.9,93.1 694.9,71.8 706.0,54.0"/>
<text x="204" y="346" font-family="Arial" font-size="12" fill="#2ca02c">588000.SH</text>
<polyline fill="none" stroke="#d62728" stroke-width="2" points="54.0,234.7 65.1,236.4 76.1,240.1 87.2,224.5 98.2,235.2 109.3,239.5 120.3,239.1 131.4,242.4 142.4,240.8 153.5,232.4 164.5,230.4 175.6,234.7 186.6,234.4 197.7,236.0 208.7,238.5 219.8,246.9 230.8,246.5 241.9,248.3 252.9,249.5 264.0,248.8 275.0,248.8 286.1,250.8 297.1,247.2 308.2,250.6 319.2,249.8 330.3,251.0 341.3,254.9 352.4,261.5 363.4,265.1 374.5,270.4 385.5,270.0 396.6,271.2 407.6,269.0 418.7,268.5 429.7,270.2 440.8,269.7 451.8,274.0 462.9,280.9 473.9,274.0 485.0,275.8 496.0,278.6 507.1,285.0 518.1,286.6 529.2,287.6 540.2,294.3 551.3,295.8 562.3,293.2 573.4,295.6 584.4,290.2 595.5,290.1 606.5,295.3 617.6,297.6 628.6,295.6 639.7,295.5 650.7,297.1 661.8,291.5 672.8,293.0 683.9,295.2 694.9,281.8 706.0,287.6"/>
<text x="354" y="346" font-family="Arial" font-size="12" fill="#d62728">159557.SZ</text>
</svg>
