<svg xmlns="http://www.w3.org/2000/svg" width="760" height="360" viewBox="0 0 760 360">
<rect width="100%" height="100%" fill="white"/>
<text x="54" y="28" font-family="Arial" font-size="16" fill="#111">60 trading days cumulative returns</text>
<line x1="54" y1="237.8" x2="706" y2="237.8" stroke="#999" stroke-width="1"/>
<polyline fill="none" stroke="#1f77b4" stroke-width="2" points="54.0,237.8 65.1,241.1 76.1,239.3 87.2,239.3 98.2,244.1 109.3,244.1 120.3,245.0 131.4,244.7 142.4,234.9 153.5,234.3 164.5,235.5 175.6,236.3 186.6,238.4 197.7,239.9 208.7,251.8 219.8,250.3 230.8,251.5 241.9,253.9 252.9,254.5 264.0,253.6 275.0,256.9 286.1,252.7 297.1,255.7 308.2,255.4 319.2,257.8 330.3,261.1 341.3,266.4 352.4,270.9 363.4,275.3 374.5,276.2 385.5,278.0 396.6,274.1 407.6,274.1 418.7,276.5 429.7,278.0 440.8,280.7 451.8,288.1 462.9,280.1 473.9,284.0 485.0,289.0 496.0,294.7 507.1,295.6 518.1,297.7 529.2,303.9 540.2,303.9 551.3,301.8 562.3,304.5 573.4,298.0 584.4,297.4 595.5,302.1 606.5,304.5 617.6,302.4 628.6,303.6 639.7,305.7 650.7,300.9 661.8,303.9 672.8,306.0 683.9,292.3 694.9,297.7 706.0,288.4"/>
<text x="54" y="346" font-family="Arial" font-size="12" fill="#1f77b4">159567.SZ</text>
<polyline fill="none" stroke="#2ca02c" stroke-width="2" points="54.0,237.8 65.1,238.9 76.1,235.7 87.2,220.6 98.2,222.4 109.3,218.4 120.3,216.4 131.4,210.8 142.4,210.3 153.5,207.4 164.5,207.2 175.6,202.1 186.6,206.3 197.7,201.8 208.7,205.6 219.8,201.4 230.8,190.5 241.9,194.7 252.9,193.4 264.0,179.1 275.0,162.8 286.1,158.2 297.1,165.9 308.2,150.6 319.2,149.7 330.3,140.8 341.3,149.9 352.4,155.0 363.4,152.1 374.5,139.8 385.5,128.9 396.6,141.7 407.6,136.9 418.7,116.7 429.7,122.2 440.8,132.5 451.8,126.9 462.9,144.6 473.9,161.0 485.0,156.1 496.0,148.5 507.1,146.8 518.1,159.3 529.2,173.8 540.2,160.8 551.3,162.8 562.3,160.6 573.4,160.6 584.4,144.6 595.5,142.7 606.5,127.4 617.6,113.3 628.6,106.2 639.7,112.2 650.7,99.0 661.8,84.1 672.8,92.3 683.9,71.4 694.9,54.0 706.0,63.8"/>
<text x="204" y="346" font-family="Arial" font-size="12" fill="#2ca02c">588000.SH</text>
<polyline fill="none" stroke="#d62728" stroke-width="2" points="54.0,237.8 65.1,241.4 76.1,226.5 87.2,236.7 98.2,240.8 109.3,240.5 120.3,243.6 131.4,242.1 142.4,234.1 153.5,232.2 164.5,236.3 175.6,235.9 186.6,237.5 197.7,239.9 208.7,247.9 219.8,247.6 230.8,249.3 241.9,250.4 252.9,249.8 264.0,249.8 275.0,251.7 286.1,248.2 297.1,251.5 308.2,250.7 319.2,251.8 330.3,255.6 341.3,261.9 352.4,265.3 363.4,270.3 374.5,270.0 385.5,271.1 396.6,269.1 407.6,268.6 418.7,270.2 429.7,269.7 440.8,273.8 451.8,280.4 462.9,273.8 473.9,275.5 485.0,278.2 496.0,284.3 507.1,285.9 518.1,286.8 529.2,293.3 540.2,294.7 551.3,292.2 562.3,294.5 573.4,289.4 584.4,289.2 595.5,294.2 606.5,296.4 617.6,294.5 628.6,294.4 639.7,296.0 650.7,290.6 661.8,292.0 672.8,294.1 683.9,281.3 694.9,286.8 706.0,284.2"/>
<text x="354" y="346" font-family="Arial" font-size="12" fill="#d62728">159557.SZ</text>
</svg>
