<svg xmlns="http://www.w3.org/2000/svg" width="760" height="360" viewBox="0 0 760 360">
<rect width="100%" height="100%" fill="white"/>
<text x="54" y="28" font-family="Arial" font-size="16" fill="#111">60 trading days cumulative excess</text>
<line x1="54" y1="54.8" x2="706" y2="54.8" stroke="#999" stroke-width="1"/>
<polyline fill="none" stroke="#1f77b4" stroke-width="2" points="54.0,54.8 65.1,57.1 76.1,58.6 87.2,74.1 98.2,77.2 109.3,81.3 120.3,84.3 131.4,89.7 142.4,80.2 153.5,82.5 164.5,84.0 175.6,90.1 186.6,88.0 197.7,94.2 208.7,102.5 219.8,105.3 230.8,117.7 241.9,115.9 252.9,117.8 264.0,131.6 275.0,151.8 286.1,152.2 297.1,147.4 308.2,162.8 319.2,166.2 330.3,178.7 341.3,174.9 352.4,174.3 363.4,181.9 374.5,195.5 385.5,208.6 396.6,191.3 407.6,196.4 418.7,219.6 429.7,215.5 440.8,207.6 451.8,221.1 462.9,194.5 473.9,181.6 485.0,191.9 496.0,205.6 507.1,208.2 518.1,197.4 529.2,188.9 540.2,202.4 551.3,198.2 562.3,203.2 573.4,196.4 584.4,212.3 595.5,219.2 606.5,237.4 617.6,249.8 628.6,258.3 639.7,254.3 650.7,263.0 661.8,281.4 672.8,275.2 683.9,282.5 694.9,306.0 706.0,286.4"/>
<text x="54" y="346" font-family="Arial" font-size="12" fill="#1f77b4">159567.SZ-588000.SH</text>
<polyline fill="none" stroke="#2ca02c" stroke-width="2" points="54.0,54.8 65.1,54.5 76.1,68.0 87.2,57.5 98.2,58.2 109.3,58.5 120.3,56.2 131.4,57.5 142.4,55.7 153.5,57.0 164.5,54.0 175.6,55.2 186.6,55.8 197.7,54.9 208.7,58.9 219.8,57.7 230.8,57.1 241.9,58.5 252.9,59.7 264.0,58.8 275.0,60.2 286.1,59.5 297.1,59.2 308.2,59.7 319.2,61.0 330.3,60.5 341.3,59.5 352.4,60.6 363.4,60.0 374.5,61.2 385.5,61.9 396.6,60.0 407.6,60.5 418.7,61.4 429.7,63.4 440.8,61.9 451.8,62.8 462.9,61.3 473.9,63.5 485.0,66.0 496.0,65.5 507.1,64.8 518.1,66.0 529.2,65.8 540.2,64.3 551.3,64.8 562.3,65.1 573.4,63.7 584.4,63.3 595.5,63.0 606.5,63.2 617.6,63.0 628.6,64.4 639.7,64.9 650.7,65.5 661.8,67.1 672.8,67.1 683.9,66.1 694.9,66.0 706.0,59.2"/>
<text x="204" y="346" font-family="Arial" font-size="12" fill="#2ca02c">159567.SZ-159557.SZ</text>
</svg>
