<svg xmlns="http://www.w3.org/2000/svg" width="760" height="360" viewBox="0 0 760 360">
<rect width="100%" height="100%" fill="white"/>
<text x="54" y="28" font-family="Arial" font-size="16" fill="#111">60 trading days cumulative returns</text>
<line x1="54" y1="237.6" x2="706" y2="237.6" stroke="#999" stroke-width="1"/>
<polyline fill="none" stroke="#1f77b4" stroke-width="2" points="54.0,237.6 65.1,237.6 76.1,242.5 87.2,242.5 98.2,243.4 109.3,243.1 120.3,233.0 131.4,232.4 142.4,233.6 153.5,234.5 164.5,236.7 175.6,238.2 186.6,250.4 197.7,248.9 208.7,250.1 219.8,252.5 230.8,253.2 241.9,252.2 252.9,255.6 264.0,251.3 275.0,254.4 286.1,254.1 297.1,256.5 308.2,259.9 319.2,265.4 330.3,270.0 341.3,274.5 352.4,275.5 363.4,277.3 374.5,273.3 385.5,273.3 396.6,275.8 407.6,277.3 418.7,280.0 429.7,287.7 440.8,279.4 451.8,283.4 462.9,288.6 473.9,294.4 485.0,295.3 496.0,297.4 507.1,303.9 518.1,303.9 529.2,301.7 540.2,304.5 551.3,297.8 562.3,297.1 573.4,302.0 584.4,304.5 595.5,302.3 606.5,303.6 617.6,305.7 628.6,300.8 639.7,303.9 650.7,306.0 661.8,291.9 672.8,297.4 683.9,288.0 694.9,286.5 706.0,275.2"/>
<text x="54" y="346" font-family="Arial" font-size="12" fill="#1f77b4">159567.SZ</text>
<polyline fill="none" stroke="#2ca02c" stroke-width="2" points="54.0,237.6 65.1,222.4 76.1,224.2 87.2,220.2 98.2,218.2 109.3,212.5 120.3,211.9 131.4,209.0 142.4,208.8 153.5,203.7 164.5,207.9 175.6,203.3 186.6,207.2 197.7,203.0 208.7,192.0 219.8,196.2 230.8,194.9 241.9,180.4 252.9,163.9 264.0,159.3 275.0,167.0 286.1,151.7 297.1,150.7 308.2,141.8 319.2,150.9 330.3,156.1 341.3,153.1 352.4,140.7 363.4,129.7 374.5,142.7 385.5,137.7 396.6,117.4 407.6,122.9 418.7,133.3 429.7,127.7 440.8,145.6 451.8,162.1 462.9,157.2 473.9,149.5 485.0,147.8 496.0,160.4 507.1,175.1 518.1,161.9 529.2,163.9 540.2,161.7 551.3,161.7 562.3,145.6 573.4,143.6 584.4,128.2 595.5,113.9 606.5,106.8 617.6,112.8 628.6,99.4 639.7,84.4 650.7,92.7 661.8,71.6 672.8,54.0 683.9,63.9 694.9,95.2 706.0,98.3"/>
<text x="204" y="346" font-family="Arial" font-size="12" fill="#2ca02c">588000.SH</text>
<polyline fill="none" stroke="#d62728" stroke-width="2" points="54.0,237.6 65.1,247.5 76.1,251.5 87.2,251.2 98.2,254.3 109.3,252.7 120.3,244.9 131.4,243.1 142.4,247.1 153.5,246.8 164.5,248.3 175.6,250.6 186.6,258.4 197.7,258.1 208.7,259.8 219.8,260.8 230.8,260.2 241.9,260.2 252.9,262.1 264.0,258.7 275.0,261.9 286.1,261.1 297.1,262.2 308.2,265.9 319.2,272.0 330.3,275.4 341.3,280.3 352.4,280.0 363.4,281.0 374.5,279.0 385.5,278.6 396.6,280.1 407.6,279.7 418.7,283.6 429.7,290.1 440.8,283.6 451.8,285.3 462.9,287.9 473.9,293.9 485.0,295.4 496.0,296.3 507.1,302.6 518.1,304.0 529.2,301.5 540.2,303.8 551.3,298.8 562.3,298.6 573.4,303.5 584.4,305.7 595.5,303.8 606.5,303.7 617.6,305.2 628.6,300.0 639.7,301.4 650.7,303.4 661.8,291.0 672.8,296.3 683.9,293.7 694.9,287.9 706.0,279.0"/>
<text x="354" y="346" font-family="Arial" font-size="12" fill="#d62728">159557.SZ</text>
</svg>
