<svg xmlns="http://www.w3.org/2000/svg" width="760" height="360" viewBox="0 0 760 360">
<rect width="100%" height="100%" fill="white"/>
<text x="54" y="28" font-family="Arial" font-size="16" fill="#111">60 trading days cumulative excess</text>
<line x1="54" y1="58.0" x2="706" y2="58.0" stroke="#999" stroke-width="1"/>
<polyline fill="none" stroke="#1f77b4" stroke-width="2" points="54.0,58.0 65.1,61.6 76.1,65.9 87.2,69.1 98.2,74.8 109.3,63.9 120.3,66.4 131.4,68.0 142.4,74.5 153.5,72.4 164.5,79.0 175.6,88.8 186.6,91.6 197.7,104.7 208.7,103.0 219.8,105.0 230.8,119.5 241.9,140.9 252.9,141.0 264.0,136.2 275.0,152.3 286.1,156.1 297.1,169.5 308.2,165.9 319.2,165.7 330.3,174.0 341.3,188.4 352.4,202.2 363.4,183.8 374.5,189.1 385.5,213.6 396.6,209.4 407.6,201.4 418.7,216.1 429.7,187.6 440.8,174.4 451.8,185.6 462.9,200.5 473.9,203.3 485.0,192.2 496.0,183.8 507.1,197.9 518.1,193.3 529.2,198.8 540.2,191.1 551.3,207.7 562.3,215.4 573.4,234.6 584.4,247.5 595.5,256.5 606.5,252.5 617.6,261.2 628.6,280.8 639.7,274.4 650.7,280.9 661.8,306.0 672.8,284.7 683.9,249.4 694.9,233.3 706.0,230.5"/>
<text x="54" y="346" font-family="Arial" font-size="12" fill="#1f77b4">159567.SZ-588000.SH</text>
<polyline fill="none" stroke="#2ca02c" stroke-width="2" points="54.0,58.0 65.1,58.8 76.1,59.2 87.2,56.6 98.2,58.1 109.3,55.8 120.3,57.3 131.4,54.0 142.4,55.4 153.5,56.0 164.5,55.0 175.6,59.7 186.6,58.3 197.7,57.7 208.7,59.2 219.8,60.6 230.8,59.6 241.9,61.2 252.9,60.4 264.0,60.0 275.0,60.6 286.1,62.1 297.1,61.6 308.2,60.6 319.2,61.8 330.3,61.2 341.3,62.6 352.4,63.4 363.4,61.2 374.5,61.8 385.5,62.8 396.6,65.0 407.6,63.4 418.7,64.5 429.7,62.8 440.8,65.3 451.8,68.1 462.9,67.6 473.9,66.8 485.0,68.2 496.0,68.0 507.1,66.4 518.1,66.9 529.2,67.3 540.2,65.6 551.3,65.1 562.3,64.9 573.4,65.1 584.4,64.9 595.5,66.4 606.5,67.0 617.6,67.7 628.6,69.5 639.7,69.6 650.7,68.3 661.8,68.2 672.8,60.5 683.9,65.7 694.9,63.3 706.0,63.9"/>
<text x="204" y="346" font-family="Arial" font-size="12" fill="#2ca02c">159567.SZ-159557.SZ</text>
</svg>
