<svg xmlns="http://www.w3.org/2000/svg" width="760" height="360" viewBox="0 0 760 360">
<rect width="100%" height="100%" fill="white"/>
<text x="54" y="28" font-family="Arial" font-size="16" fill="#111">60 trading days cumulative returns</text>
<line x1="54" y1="235.5" x2="706" y2="235.5" stroke="#999" stroke-width="1"/>
<polyline fill="none" stroke="#1f77b4" stroke-width="2" points="54.0,235.5 65.1,239.1 76.1,217.2 87.2,213.5 98.2,216.7 109.3,187.9 120.3,186.9 131.4,192.6 142.4,189.5 153.5,189.5 164.5,197.9 175.6,197.9 186.6,199.4 197.7,198.9 208.7,181.7 219.8,180.6 230.8,182.7 241.9,184.3 252.9,187.9 264.0,190.5 275.0,211.4 286.1,208.8 297.1,210.9 308.2,215.1 319.2,216.1 330.3,214.6 341.3,220.3 352.4,213.0 363.4,218.2 374.5,217.7 385.5,221.9 396.6,227.6 407.6,237.0 418.7,244.9 429.7,252.7 440.8,254.3 451.8,257.4 462.9,250.6 473.9,250.6 485.0,254.8 496.0,257.4 507.1,262.1 518.1,275.2 529.2,261.1 540.2,267.9 551.3,276.7 562.3,286.7 573.4,288.2 584.4,291.9 595.5,302.9 606.5,302.9 617.6,299.2 628.6,303.9 639.7,292.4 650.7,291.4 661.8,299.7 672.8,303.9 683.9,300.3 694.9,302.3 706.0,306.0"/>
<text x="54" y="346" font-family="Arial" font-size="12" fill="#1f77b4">159567.SZ</text>
<polyline fill="none" stroke="#2ca02c" stroke-width="2" points="54.0,235.5 65.1,243.0 76.1,239.5 87.2,242.5 98.2,252.0 109.3,239.8 120.3,250.3 131.4,252.0 142.4,247.1 153.5,224.7 164.5,227.4 175.6,221.4 186.6,218.4 197.7,210.1 208.7,209.2 219.8,204.9 230.8,204.6 241.9,197.1 252.9,203.3 264.0,196.5 275.0,202.2 286.1,196.0 297.1,179.8 308.2,186.0 319.2,184.1 330.3,162.7 341.3,138.4 352.4,131.6 363.4,143.0 374.5,120.3 385.5,118.9 396.6,105.7 407.6,119.2 418.7,126.8 429.7,122.4 440.8,104.0 451.8,87.8 462.9,107.0 473.9,99.7 485.0,69.7 496.0,77.8 507.1,93.2 518.1,84.8 529.2,111.3 540.2,135.7 551.3,128.4 562.3,117.0 573.4,114.6 584.4,133.2 595.5,154.9 606.5,135.4 617.6,138.4 628.6,135.1 639.7,135.1 650.7,111.3 661.8,108.4 672.8,85.6 683.9,64.5 694.9,54.0 706.0,62.9"/>
<text x="204" y="346" font-family="Arial" font-size="12" fill="#2ca02c">588000.SH</text>
<polyline fill="none" stroke="#d62728" stroke-width="2" points="54.0,235.5 65.1,240.5 76.1,224.1 87.2,225.4 98.2,226.7 109.3,201.1 120.3,203.7 131.4,209.8 142.4,184.6 153.5,201.9 164.5,208.7 175.6,208.2 186.6,213.5 197.7,210.9 208.7,197.4 219.8,194.2 230.8,201.1 241.9,200.5 252.9,203.2 264.0,207.1 275.0,220.6 286.1,220.1 297.1,223.0 308.2,224.9 319.2,223.8 330.3,223.8 341.3,227.0 352.4,221.2 363.4,226.7 374.5,225.4 385.5,227.3 396.6,233.6 407.6,244.2 418.7,250.0 429.7,258.5 440.8,258.0 451.8,259.8 462.9,256.4 473.9,255.6 485.0,258.2 496.0,257.4 507.1,264.3 518.1,275.4 529.2,264.3 540.2,267.2 551.3,271.7 562.3,282.1 573.4,284.7 584.4,286.3 595.5,297.2 606.5,299.5 617.6,295.3 628.6,299.3 639.7,290.5 650.7,290.3 661.8,298.7 672.8,302.4 683.9,299.3 694.9,299.0 706.0,301.7"/>
<text x="354" y="346" font-family="Arial" font-size="12" fill="#d62728">159557.SZ</text>
</svg>
